STARTFONT 2.1
FONT --Tms Rmn-Regular-R-Medium--16-100-120-120-P-100-IBM-UGL
SIZE 10 120 120
FONTBOUNDINGBOX 18 20 0 -4
METRICSSET 2
STARTPROPERTIES 27
FONT_ASCENT 12
FONT_DESCENT 4
PIXEL_SIZE 16
RESOLUTION_X 120
RESOLUTION_Y 120
POINT_SIZE 100
FACE_NAME "Tms Rmn"
FOUNDRY ""
FAMILY_NAME "Tms Rmn"
WEIGHT_NAME "Regular"
RELATIVE_WEIGHT 50
SLANT "R"
SPACING "P"
SETWIDTH_NAME "Medium"
RELATIVE_SETWIDTH 50
ADD_STYLE_NAME ""
AVERAGE_WIDTH 100
UNDERLINE_POSITION 1
SUPERSCRIPT_SIZE 9
SUBSCRIPT_SIZE 9
SUPERSCRIPT_X 0
SUPERSCRIPT_Y 6
SUBSCRIPT_X 0
SUBSCRIPT_Y 8
DEFAULT_CHAR 32
CHARSET_REGISTRY "IBM"
CHARSET_ENCODING "UGL"
ENDPROPERTIES
CHARS 382
STARTCHAR smileface
ENCODING 1
SWIDTH 900 0
DWIDTH 15 0
BBX 12 12 1 0
VVECTOR 7 16
SWIDTH1 0 -1200
DWIDTH1 0 -20
BITMAP 
0F00
30C0
4020
4920
8910
A050
A050
9090
4F20
4020
30C0
0F00
ENDCHAR
STARTCHAR invsmileface
ENCODING 2
SWIDTH 900 0
DWIDTH 15 0
BBX 12 12 1 0
VVECTOR 7 16
SWIDTH1 0 -1200
DWIDTH1 0 -20
BITMAP 
0F00
3FC0
76E0
76E0
FFF0
9F90
DFB0
EF70
70E0
7FE0
3FC0
0F00
ENDCHAR
STARTCHAR heart
ENCODING 3
SWIDTH 960 0
DWIDTH 16 0
BBX 11 13 2 -1
VVECTOR 7 16
SWIDTH1 0 -1200
DWIDTH1 0 -20
BITMAP 
71C0
FBE0
FBE0
FFE0
FFE0
7FC0
7FC0
3F80
3F80
1F00
0E00
0E00
0400
ENDCHAR
STARTCHAR diamond
ENCODING 4
SWIDTH 960 0
DWIDTH 16 0
BBX 11 13 2 -1
VVECTOR 7 16
SWIDTH1 0 -1200
DWIDTH1 0 -20
BITMAP 
0400
0E00
1F00
1F00
3F80
7FC0
FFE0
7FC0
3F80
1F00
1F00
0E00
0400
ENDCHAR
STARTCHAR club
ENCODING 5
SWIDTH 960 0
DWIDTH 16 0
BBX 13 13 1 -1
VVECTOR 7 16
SWIDTH1 0 -1200
DWIDTH1 0 -20
BITMAP 
0700
0F80
0F80
0F80
0700
7270
FAF8
FFF8
FFF8
FAF8
7270
0200
0700
ENDCHAR
STARTCHAR spade
ENCODING 6
SWIDTH 960 0
DWIDTH 16 0
BBX 13 13 1 -1
VVECTOR 7 16
SWIDTH1 0 -1200
DWIDTH1 0 -20
BITMAP 
0200
0700
0F80
0F80
1FC0
3FE0
3FE0
7FF0
FFF8
FAF8
FAF8
7270
0700
ENDCHAR
STARTCHAR bullet
ENCODING 7
SWIDTH 660 0
DWIDTH 11 0
BBX 9 9 1 0
VVECTOR 6 16
SWIDTH1 0 -1200
DWIDTH1 0 -20
BITMAP 
1C00
7F00
7F00
FF80
FF80
FF80
7F00
7F00
1C00
ENDCHAR
STARTCHAR invbullet
ENCODING 8
SWIDTH 1020 0
DWIDTH 17 0
BBX 17 16 0 -4
VVECTOR 9 16
SWIDTH1 0 -1200
DWIDTH1 0 -20
BITMAP 
FFFF80
FFFF80
FFFF80
FE3F80
F80F80
F80F80
F00780
F00780
F00780
F80F80
F80F80
FE3F80
FFFF80
FFFF80
FFFF80
FFFF80
ENDCHAR
STARTCHAR circle
ENCODING 9
SWIDTH 780 0
DWIDTH 13 0
BBX 12 12 0 -1
VVECTOR 6 16
SWIDTH1 0 -1200
DWIDTH1 0 -20
BITMAP 
0F00
30C0
4020
4020
8010
8010
8010
8010
4020
4020
30C0
0F00
ENDCHAR
STARTCHAR invcircle
ENCODING 10
SWIDTH 1020 0
DWIDTH 17 0
BBX 17 16 0 -4
VVECTOR 9 16
SWIDTH1 0 -1200
DWIDTH1 0 -20
BITMAP 
FFFF80
FC1F80
F1C780
E7F380
EFFB80
CFF980
DFFD80
DFFD80
DFFD80
CFF980
EFFB80
E7F380
F1C780
FC1F80
FFFF80
FFFF80
ENDCHAR
STARTCHAR male
ENCODING 11
SWIDTH 840 0
DWIDTH 14 0
BBX 8 12 3 0
VVECTOR 7 16
SWIDTH1 0 -1200
DWIDTH1 0 -20
BITMAP 
02
0E
15
05
08
38
44
82
82
82
44
38
ENDCHAR
STARTCHAR female
ENCODING 12
SWIDTH 840 0
DWIDTH 14 0
BBX 7 12 3 0
VVECTOR 6 16
SWIDTH1 0 -1200
DWIDTH1 0 -20
BITMAP 
38
44
82
82
82
44
38
10
10
7C
10
10
ENDCHAR
STARTCHAR musicalnote
ENCODING 13
SWIDTH 540 0
DWIDTH 9 0
BBX 7 12 1 0
VVECTOR 5 16
SWIDTH1 0 -1200
DWIDTH1 0 -20
BITMAP 
10
10
18
18
14
12
12
12
70
F0
F0
60
ENDCHAR
STARTCHAR musicalnotedbl
ENCODING 14
SWIDTH 720 0
DWIDTH 12 0
BBX 8 16 2 -4
VVECTOR 6 16
SWIDTH1 0 -1200
DWIDTH1 0 -20
BITMAP 
10
18
18
14
12
19
15
13
13
71
F1
F1
67
0F
0F
06
ENDCHAR
STARTCHAR sun
ENCODING 15
SWIDTH 900 0
DWIDTH 15 0
BBX 13 13 1 -1
VVECTOR 8 16
SWIDTH1 0 -1200
DWIDTH1 0 -20
BITMAP 
0200
0200
2720
18C0
1040
2020
E038
2020
1040
18C0
2720
0200
0200
ENDCHAR
STARTCHAR triagrt
ENCODING 16
SWIDTH 600 0
DWIDTH 10 0
BBX 7 7 1 2
VVECTOR 4 16
SWIDTH1 0 -1200
DWIDTH1 0 -20
BITMAP 
80
E0
F8
FE
F8
E0
80
ENDCHAR
STARTCHAR triaglf
ENCODING 17
SWIDTH 600 0
DWIDTH 10 0
BBX 7 7 1 2
VVECTOR 4 16
SWIDTH1 0 -1200
DWIDTH1 0 -20
BITMAP 
02
0E
3E
FE
3E
0E
02
ENDCHAR
STARTCHAR arrowupdn
ENCODING 18
SWIDTH 480 0
DWIDTH 8 0
BBX 5 15 1 -3
VVECTOR 3 16
SWIDTH1 0 -1200
DWIDTH1 0 -20
BITMAP 
20
20
70
70
A8
A8
20
20
20
A8
A8
70
70
20
20
ENDCHAR
STARTCHAR exclamdbl
ENCODING 19
SWIDTH 720 0
DWIDTH 12 0
BBX 8 11 2 0
VVECTOR 6 16
SWIDTH1 0 -1200
DWIDTH1 0 -20
BITMAP 
C3
C3
C3
C3
C3
82
82
82
00
C3
C3
ENDCHAR
STARTCHAR char14
ENCODING 20
SWIDTH 480 0
DWIDTH 8 0
BBX 8 11 0 0
VVECTOR 4 16
SWIDTH1 0 -1200
DWIDTH1 0 -20
BITMAP 
7F
F2
F2
F2
F2
72
12
12
12
12
12
ENDCHAR
STARTCHAR char15
ENCODING 21
SWIDTH 480 0
DWIDTH 8 0
BBX 6 14 1 -3
VVECTOR 4 16
SWIDTH1 0 -1200
DWIDTH1 0 -20
BITMAP 
78
CC
CC
60
70
D8
8C
C4
6C
38
18
CC
CC
78
ENDCHAR
STARTCHAR filledrect
ENCODING 22
SWIDTH 960 0
DWIDTH 16 0
BBX 10 3 3 4
VVECTOR 8 16
SWIDTH1 0 -1200
DWIDTH1 0 -20
BITMAP 
FFC0
FFC0
FFC0
ENDCHAR
STARTCHAR arrowupdnbse
ENCODING 23
SWIDTH 480 0
DWIDTH 8 0
BBX 5 15 1 -3
VVECTOR 3 16
SWIDTH1 0 -1200
DWIDTH1 0 -20
BITMAP 
20
70
70
A8
A8
20
20
20
A8
A8
70
70
20
00
F8
ENDCHAR
STARTCHAR arrowup
ENCODING 24
SWIDTH 480 0
DWIDTH 8 0
BBX 5 15 1 -3
VVECTOR 3 16
SWIDTH1 0 -1200
DWIDTH1 0 -20
BITMAP 
20
20
70
70
A8
A8
20
20
20
20
20
20
20
20
20
ENDCHAR
STARTCHAR arrowdown
ENCODING 25
SWIDTH 480 0
DWIDTH 8 0
BBX 5 15 1 -3
VVECTOR 3 16
SWIDTH1 0 -1200
DWIDTH1 0 -20
BITMAP 
20
20
20
20
20
20
20
20
20
A8
A8
70
70
20
20
ENDCHAR
STARTCHAR arrowright
ENCODING 26
SWIDTH 1020 0
DWIDTH 17 0
BBX 15 7 1 2
VVECTOR 9 16
SWIDTH1 0 -1200
DWIDTH1 0 -20
BITMAP 
0040
0030
000C
FFFE
000C
0030
0040
ENDCHAR
STARTCHAR arrowleft
ENCODING 27
SWIDTH 1020 0
DWIDTH 17 0
BBX 15 7 1 2
VVECTOR 9 16
SWIDTH1 0 -1200
DWIDTH1 0 -20
BITMAP 
0400
1800
6000
FFFE
6000
1800
0400
ENDCHAR
STARTCHAR orthogonal
ENCODING 28
SWIDTH 540 0
DWIDTH 9 0
BBX 7 4 1 3
VVECTOR 5 16
SWIDTH1 0 -1200
DWIDTH1 0 -20
BITMAP 
80
80
80
FE
ENDCHAR
STARTCHAR arrowboth
ENCODING 29
SWIDTH 1020 0
DWIDTH 17 0
BBX 15 7 1 2
VVECTOR 9 16
SWIDTH1 0 -1200
DWIDTH1 0 -20
BITMAP 
0440
1830
600C
FFFE
600C
1830
0440
ENDCHAR
STARTCHAR triagup
ENCODING 30
SWIDTH 600 0
DWIDTH 10 0
BBX 7 7 1 2
VVECTOR 4 16
SWIDTH1 0 -1200
DWIDTH1 0 -20
BITMAP 
10
10
38
38
7C
7C
FE
ENDCHAR
STARTCHAR triagdn
ENCODING 31
SWIDTH 600 0
DWIDTH 10 0
BBX 7 7 1 2
VVECTOR 4 16
SWIDTH1 0 -1200
DWIDTH1 0 -20
BITMAP 
FE
7C
7C
38
38
10
10
ENDCHAR
STARTCHAR space
ENCODING 32
SWIDTH 240 0
DWIDTH 4 0
BBX 0 0 4 16
VVECTOR 6 16
SWIDTH1 0 -1200
DWIDTH1 0 -20
BITMAP 
ENDCHAR
STARTCHAR exclam
ENCODING 33
SWIDTH 360 0
DWIDTH 6 0
BBX 2 11 2 0
VVECTOR 3 16
SWIDTH1 0 -1200
DWIDTH1 0 -20
BITMAP 
C0
C0
C0
C0
C0
80
80
80
00
C0
C0
ENDCHAR
STARTCHAR quotedbl
ENCODING 34
SWIDTH 420 0
DWIDTH 7 0
BBX 5 5 1 6
VVECTOR 4 16
SWIDTH1 0 -1200
DWIDTH1 0 -20
BITMAP 
D8
D8
D8
50
50
ENDCHAR
STARTCHAR numbersign
ENCODING 35
SWIDTH 480 0
DWIDTH 8 0
BBX 8 12 0 -1
VVECTOR 4 16
SWIDTH1 0 -1200
DWIDTH1 0 -20
BITMAP 
12
12
12
7F
24
24
24
FE
48
48
48
48
ENDCHAR
STARTCHAR dollar
ENCODING 36
SWIDTH 480 0
DWIDTH 8 0
BBX 7 15 0 -2
VVECTOR 3 16
SWIDTH1 0 -1200
DWIDTH1 0 -20
BITMAP 
10
10
3C
56
D2
D0
70
38
1C
16
96
D4
78
10
10
ENDCHAR
STARTCHAR percent
ENCODING 37
SWIDTH 840 0
DWIDTH 14 0
BBX 13 11 0 0
VVECTOR 6 16
SWIDTH1 0 -1200
DWIDTH1 0 -20
BITMAP 
3860
67C0
C480
8900
9B00
6270
04C8
0D88
0910
1130
30C0
ENDCHAR
STARTCHAR ampersand
ENCODING 38
SWIDTH 780 0
DWIDTH 13 0
BBX 12 11 1 0
VVECTOR 8 16
SWIDTH1 0 -1200
DWIDTH1 0 -20
BITMAP 
1C00
3200
3200
3400
19E0
38C0
6880
CD00
C600
E710
79E0
ENDCHAR
STARTCHAR quotesingle
ENCODING 39
SWIDTH 180 0
DWIDTH 3 0
BBX 2 5 0 6
VVECTOR 1 16
SWIDTH1 0 -1200
DWIDTH1 0 -20
BITMAP 
C0
C0
C0
40
40
ENDCHAR
STARTCHAR parenleft
ENCODING 40
SWIDTH 360 0
DWIDTH 6 0
BBX 5 15 1 -4
VVECTOR 4 16
SWIDTH1 0 -1200
DWIDTH1 0 -20
BITMAP 
18
20
60
40
C0
C0
C0
C0
C0
C0
C0
40
60
20
18
ENDCHAR
STARTCHAR parenright
ENCODING 41
SWIDTH 360 0
DWIDTH 6 0
BBX 5 15 0 -4
VVECTOR 2 16
SWIDTH1 0 -1200
DWIDTH1 0 -20
BITMAP 
C0
20
30
10
18
18
18
18
18
18
18
10
30
20
C0
ENDCHAR
STARTCHAR asterisk
ENCODING 42
SWIDTH 480 0
DWIDTH 8 0
BBX 5 6 1 5
VVECTOR 3 16
SWIDTH1 0 -1200
DWIDTH1 0 -20
BITMAP 
20
A8
70
70
A8
20
ENDCHAR
STARTCHAR plus
ENCODING 43
SWIDTH 540 0
DWIDTH 9 0
BBX 7 7 1 1
VVECTOR 5 16
SWIDTH1 0 -1200
DWIDTH1 0 -20
BITMAP 
10
10
10
FE
10
10
10
ENDCHAR
STARTCHAR comma
ENCODING 44
SWIDTH 240 0
DWIDTH 4 0
BBX 3 5 0 -3
VVECTOR 1 16
SWIDTH1 0 -1200
DWIDTH1 0 -20
BITMAP 
60
60
20
40
80
ENDCHAR
STARTCHAR hyphen
ENCODING 45
SWIDTH 360 0
DWIDTH 6 0
BBX 4 1 1 3
VVECTOR 3 16
SWIDTH1 0 -1200
DWIDTH1 0 -20
BITMAP 
F0
ENDCHAR
STARTCHAR period
ENCODING 46
SWIDTH 240 0
DWIDTH 4 0
BBX 2 2 1 0
VVECTOR 2 16
SWIDTH1 0 -1200
DWIDTH1 0 -20
BITMAP 
C0
C0
ENDCHAR
STARTCHAR slash
ENCODING 47
SWIDTH 300 0
DWIDTH 5 0
BBX 5 12 0 -1
VVECTOR 3 16
SWIDTH1 0 -1200
DWIDTH1 0 -20
BITMAP 
08
08
18
10
30
20
20
60
40
C0
80
80
ENDCHAR
STARTCHAR zero
ENCODING 48
SWIDTH 480 0
DWIDTH 8 0
BBX 7 11 0 0
VVECTOR 3 16
SWIDTH1 0 -1200
DWIDTH1 0 -20
BITMAP 
38
6C
C6
C6
C6
C6
C6
C6
C6
6C
38
ENDCHAR
STARTCHAR one
ENCODING 49
SWIDTH 480 0
DWIDTH 8 0
BBX 6 11 1 0
VVECTOR 4 16
SWIDTH1 0 -1200
DWIDTH1 0 -20
BITMAP 
30
70
B0
30
30
30
30
30
30
30
FC
ENDCHAR
STARTCHAR two
ENCODING 50
SWIDTH 480 0
DWIDTH 8 0
BBX 7 11 0 0
VVECTOR 3 16
SWIDTH1 0 -1200
DWIDTH1 0 -20
BITMAP 
3C
6E
86
06
0C
08
18
10
22
7E
FE
ENDCHAR
STARTCHAR three
ENCODING 51
SWIDTH 480 0
DWIDTH 8 0
BBX 7 11 0 0
VVECTOR 3 16
SWIDTH1 0 -1200
DWIDTH1 0 -20
BITMAP 
3C
6E
86
04
08
3C
0E
06
C6
C4
78
ENDCHAR
STARTCHAR four
ENCODING 52
SWIDTH 480 0
DWIDTH 8 0
BBX 7 11 0 0
VVECTOR 3 16
SWIDTH1 0 -1200
DWIDTH1 0 -20
BITMAP 
0C
1C
1C
2C
4C
4C
8C
FE
0C
0C
0C
ENDCHAR
STARTCHAR five
ENCODING 53
SWIDTH 480 0
DWIDTH 8 0
BBX 7 11 0 0
VVECTOR 3 16
SWIDTH1 0 -1200
DWIDTH1 0 -20
BITMAP 
3E
3C
20
60
78
7C
0E
06
C6
C4
78
ENDCHAR
STARTCHAR six
ENCODING 54
SWIDTH 480 0
DWIDTH 8 0
BBX 7 11 0 0
VVECTOR 3 16
SWIDTH1 0 -1200
DWIDTH1 0 -20
BITMAP 
1C
30
60
60
DC
EE
C6
C6
C6
6C
38
ENDCHAR
STARTCHAR seven
ENCODING 55
SWIDTH 480 0
DWIDTH 8 0
BBX 7 11 0 0
VVECTOR 3 16
SWIDTH1 0 -1200
DWIDTH1 0 -20
BITMAP 
7E
FE
84
0C
08
08
18
10
10
30
20
ENDCHAR
STARTCHAR eight
ENCODING 56
SWIDTH 480 0
DWIDTH 8 0
BBX 7 11 0 0
VVECTOR 3 16
SWIDTH1 0 -1200
DWIDTH1 0 -20
BITMAP 
38
6C
44
6C
38
6C
C6
C6
C6
6C
38
ENDCHAR
STARTCHAR nine
ENCODING 57
SWIDTH 480 0
DWIDTH 8 0
BBX 7 11 0 0
VVECTOR 3 16
SWIDTH1 0 -1200
DWIDTH1 0 -20
BITMAP 
38
6C
C6
C6
C6
EE
76
0C
0C
18
70
ENDCHAR
STARTCHAR colon
ENCODING 58
SWIDTH 300 0
DWIDTH 5 0
BBX 2 8 1 0
VVECTOR 2 16
SWIDTH1 0 -1200
DWIDTH1 0 -20
BITMAP 
C0
C0
00
00
00
00
C0
C0
ENDCHAR
STARTCHAR semicolon
ENCODING 59
SWIDTH 300 0
DWIDTH 5 0
BBX 3 11 0 -3
VVECTOR 1 16
SWIDTH1 0 -1200
DWIDTH1 0 -20
BITMAP 
60
60
00
00
00
00
60
60
20
40
80
ENDCHAR
STARTCHAR less
ENCODING 60
SWIDTH 540 0
DWIDTH 9 0
BBX 7 7 1 1
VVECTOR 5 16
SWIDTH1 0 -1200
DWIDTH1 0 -20
BITMAP 
02
0C
30
C0
30
0C
02
ENDCHAR
STARTCHAR equal
ENCODING 61
SWIDTH 540 0
DWIDTH 9 0
BBX 7 4 1 2
VVECTOR 5 16
SWIDTH1 0 -1200
DWIDTH1 0 -20
BITMAP 
FE
00
00
FE
ENDCHAR
STARTCHAR greater
ENCODING 62
SWIDTH 540 0
DWIDTH 9 0
BBX 7 7 1 1
VVECTOR 5 16
SWIDTH1 0 -1200
DWIDTH1 0 -20
BITMAP 
80
60
18
06
18
60
80
ENDCHAR
STARTCHAR question
ENCODING 63
SWIDTH 420 0
DWIDTH 7 0
BBX 6 11 0 0
VVECTOR 3 16
SWIDTH1 0 -1200
DWIDTH1 0 -20
BITMAP 
78
CC
8C
0C
18
30
20
20
00
30
30
ENDCHAR
STARTCHAR at
ENCODING 64
SWIDTH 900 0
DWIDTH 15 0
BBX 14 15 0 -3
VVECTOR 7 16
SWIDTH1 0 -1200
DWIDTH1 0 -20
BITMAP 
07C0
1C70
3018
6008
43AC
C664
8C64
8C44
8CC8
8CD8
C770
4000
6010
3870
0FC0
ENDCHAR
STARTCHAR A
ENCODING 65
SWIDTH 720 0
DWIDTH 12 0
BBX 12 11 0 0
VVECTOR 6 16
SWIDTH1 0 -1200
DWIDTH1 0 -20
BITMAP 
0600
0600
0B00
0B00
1980
1180
1F80
30C0
20C0
6060
F0F0
ENDCHAR
STARTCHAR B
ENCODING 66
SWIDTH 720 0
DWIDTH 12 0
BBX 10 11 1 0
VVECTOR 6 16
SWIDTH1 0 -1200
DWIDTH1 0 -20
BITMAP 
FE00
6300
6180
6180
6300
7F00
6180
60C0
60C0
6180
FF00
ENDCHAR
STARTCHAR C
ENCODING 67
SWIDTH 660 0
DWIDTH 11 0
BBX 9 11 1 0
VVECTOR 6 16
SWIDTH1 0 -1200
DWIDTH1 0 -20
BITMAP 
1E80
7380
6180
C080
C000
C000
C000
C000
6080
7380
1E00
ENDCHAR
STARTCHAR D
ENCODING 68
SWIDTH 720 0
DWIDTH 12 0
BBX 10 11 1 0
VVECTOR 6 16
SWIDTH1 0 -1200
DWIDTH1 0 -20
BITMAP 
FE00
6380
6180
60C0
60C0
60C0
60C0
60C0
6180
6380
FE00
ENDCHAR
STARTCHAR E
ENCODING 69
SWIDTH 660 0
DWIDTH 11 0
BBX 9 11 1 0
VVECTOR 6 16
SWIDTH1 0 -1200
DWIDTH1 0 -20
BITMAP 
FF00
6100
6100
6000
6200
7E00
6200
6000
6080
6180
FF00
ENDCHAR
STARTCHAR F
ENCODING 70
SWIDTH 600 0
DWIDTH 10 0
BBX 8 11 1 0
VVECTOR 5 16
SWIDTH1 0 -1200
DWIDTH1 0 -20
BITMAP 
FF
61
61
60
62
7E
62
60
60
60
F0
ENDCHAR
STARTCHAR G
ENCODING 71
SWIDTH 720 0
DWIDTH 12 0
BBX 10 11 1 0
VVECTOR 6 16
SWIDTH1 0 -1200
DWIDTH1 0 -20
BITMAP 
1E80
7380
6080
C000
C000
C3C0
C180
C180
6180
7380
1E00
ENDCHAR
STARTCHAR H
ENCODING 72
SWIDTH 720 0
DWIDTH 12 0
BBX 10 11 1 0
VVECTOR 6 16
SWIDTH1 0 -1200
DWIDTH1 0 -20
BITMAP 
F3C0
6180
6180
6180
6180
7F80
6180
6180
6180
6180
F3C0
ENDCHAR
STARTCHAR I
ENCODING 73
SWIDTH 360 0
DWIDTH 6 0
BBX 4 11 1 0
VVECTOR 3 16
SWIDTH1 0 -1200
DWIDTH1 0 -20
BITMAP 
F0
60
60
60
60
60
60
60
60
60
F0
ENDCHAR
STARTCHAR J
ENCODING 74
SWIDTH 420 0
DWIDTH 7 0
BBX 6 11 0 0
VVECTOR 3 16
SWIDTH1 0 -1200
DWIDTH1 0 -20
BITMAP 
3C
18
18
18
18
18
18
18
18
D8
70
ENDCHAR
STARTCHAR K
ENCODING 75
SWIDTH 720 0
DWIDTH 12 0
BBX 11 11 1 0
VVECTOR 7 16
SWIDTH1 0 -1200
DWIDTH1 0 -20
BITMAP 
F3C0
6100
6200
6400
6C00
7800
6C00
6600
6300
6180
F3E0
ENDCHAR
STARTCHAR L
ENCODING 76
SWIDTH 600 0
DWIDTH 10 0
BBX 9 11 1 0
VVECTOR 6 16
SWIDTH1 0 -1200
DWIDTH1 0 -20
BITMAP 
F000
6000
6000
6000
6000
6000
6000
6000
6080
6180
FF00
ENDCHAR
STARTCHAR M
ENCODING 77
SWIDTH 900 0
DWIDTH 15 0
BBX 13 11 1 0
VVECTOR 8 16
SWIDTH1 0 -1200
DWIDTH1 0 -20
BITMAP 
E038
6030
7070
7070
58B0
58B0
4DB0
4D30
4730
4630
E278
ENDCHAR
STARTCHAR N
ENCODING 78
SWIDTH 720 0
DWIDTH 12 0
BBX 10 11 1 0
VVECTOR 6 16
SWIDTH1 0 -1200
DWIDTH1 0 -20
BITMAP 
E1C0
7080
7080
5880
4C80
4C80
4680
4380
4380
4180
E080
ENDCHAR
STARTCHAR O
ENCODING 79
SWIDTH 720 0
DWIDTH 12 0
BBX 10 11 1 0
VVECTOR 6 16
SWIDTH1 0 -1200
DWIDTH1 0 -20
BITMAP 
1E00
7380
6180
C0C0
C0C0
C0C0
C0C0
C0C0
6180
7380
1E00
ENDCHAR
STARTCHAR P
ENCODING 80
SWIDTH 600 0
DWIDTH 10 0
BBX 8 11 1 0
VVECTOR 5 16
SWIDTH1 0 -1200
DWIDTH1 0 -20
BITMAP 
FC
66
63
63
63
66
7C
60
60
60
F0
ENDCHAR
STARTCHAR Q
ENCODING 81
SWIDTH 720 0
DWIDTH 12 0
BBX 10 13 1 -2
VVECTOR 6 16
SWIDTH1 0 -1200
DWIDTH1 0 -20
BITMAP 
1E00
7380
6180
C0C0
C0C0
C0C0
C0C0
C0C0
6180
7380
1E00
0F00
03C0
ENDCHAR
STARTCHAR R
ENCODING 82
SWIDTH 660 0
DWIDTH 11 0
BBX 9 11 1 0
VVECTOR 6 16
SWIDTH1 0 -1200
DWIDTH1 0 -20
BITMAP 
FC00
6600
6300
6300
6300
6600
7C00
6600
6600
6300
F380
ENDCHAR
STARTCHAR S
ENCODING 83
SWIDTH 600 0
DWIDTH 10 0
BBX 8 11 1 0
VVECTOR 5 16
SWIDTH1 0 -1200
DWIDTH1 0 -20
BITMAP 
3A
66
C2
C0
70
3C
0E
03
83
C6
BC
ENDCHAR
STARTCHAR T
ENCODING 84
SWIDTH 600 0
DWIDTH 10 0
BBX 10 11 0 0
VVECTOR 5 16
SWIDTH1 0 -1200
DWIDTH1 0 -20
BITMAP 
FFC0
8C40
8C40
0C00
0C00
0C00
0C00
0C00
0C00
0C00
3F00
ENDCHAR
STARTCHAR U
ENCODING 85
SWIDTH 720 0
DWIDTH 12 0
BBX 10 11 1 0
VVECTOR 6 16
SWIDTH1 0 -1200
DWIDTH1 0 -20
BITMAP 
F1C0
6080
6080
6080
6080
6080
6080
6080
6080
3100
1E00
ENDCHAR
STARTCHAR V
ENCODING 86
SWIDTH 720 0
DWIDTH 12 0
BBX 12 11 0 0
VVECTOR 6 16
SWIDTH1 0 -1200
DWIDTH1 0 -20
BITMAP 
F0F0
6060
3040
30C0
1080
1880
1980
0D00
0D00
0600
0600
ENDCHAR
STARTCHAR W
ENCODING 87
SWIDTH 900 0
DWIDTH 15 0
BBX 15 11 0 0
VVECTOR 8 16
SWIDTH1 0 -1200
DWIDTH1 0 -20
BITMAP 
F78E
6304
630C
3188
3188
3198
1AD0
1AD0
1EF0
0C60
0C60
ENDCHAR
STARTCHAR X
ENCODING 88
SWIDTH 720 0
DWIDTH 12 0
BBX 10 11 1 0
VVECTOR 6 16
SWIDTH1 0 -1200
DWIDTH1 0 -20
BITMAP 
F3C0
6180
3100
1A00
1C00
0C00
0E00
1600
2300
6180
F3C0
ENDCHAR
STARTCHAR Y
ENCODING 89
SWIDTH 720 0
DWIDTH 12 0
BBX 10 11 1 0
VVECTOR 6 16
SWIDTH1 0 -1200
DWIDTH1 0 -20
BITMAP 
F1C0
6080
3100
3100
1A00
1E00
0C00
0C00
0C00
0C00
3F00
ENDCHAR
STARTCHAR Z
ENCODING 90
SWIDTH 660 0
DWIDTH 11 0
BBX 9 11 1 0
VVECTOR 6 16
SWIDTH1 0 -1200
DWIDTH1 0 -20
BITMAP 
7F80
4300
4600
0600
0C00
0800
1800
3000
3080
6180
FF00
ENDCHAR
STARTCHAR bracketleft
ENCODING 91
SWIDTH 360 0
DWIDTH 6 0
BBX 4 15 2 -4
VVECTOR 5 16
SWIDTH1 0 -1200
DWIDTH1 0 -20
BITMAP 
F0
C0
C0
C0
C0
C0
C0
C0
C0
C0
C0
C0
C0
C0
F0
ENDCHAR
STARTCHAR backslash
ENCODING 92
SWIDTH 300 0
DWIDTH 5 0
BBX 5 12 0 -1
VVECTOR 3 16
SWIDTH1 0 -1200
DWIDTH1 0 -20
BITMAP 
80
80
C0
40
60
20
20
30
10
18
08
08
ENDCHAR
STARTCHAR bracketright
ENCODING 93
SWIDTH 360 0
DWIDTH 6 0
BBX 4 15 0 -4
VVECTOR 1 16
SWIDTH1 0 -1200
DWIDTH1 0 -20
BITMAP 
F0
30
30
30
30
30
30
30
30
30
30
30
30
30
F0
ENDCHAR
STARTCHAR asciicircum
ENCODING 94
SWIDTH 360 0
DWIDTH 6 0
BBX 6 3 0 8
VVECTOR 3 16
SWIDTH1 0 -1200
DWIDTH1 0 -20
BITMAP 
30
78
CC
ENDCHAR
STARTCHAR underscore
ENCODING 95
SWIDTH 480 0
DWIDTH 8 0
BBX 8 1 0 -4
VVECTOR 4 16
SWIDTH1 0 -1200
DWIDTH1 0 -20
BITMAP 
FF
ENDCHAR
STARTCHAR grave
ENCODING 96
SWIDTH 360 0
DWIDTH 6 0
BBX 4 3 1 8
VVECTOR 3 16
SWIDTH1 0 -1200
DWIDTH1 0 -20
BITMAP 
C0
60
10
ENDCHAR
STARTCHAR a
ENCODING 97
SWIDTH 420 0
DWIDTH 7 0
BBX 6 8 0 0
VVECTOR 3 16
SWIDTH1 0 -1200
DWIDTH1 0 -20
BITMAP 
78
CC
0C
7C
CC
CC
CC
7C
ENDCHAR
STARTCHAR b
ENCODING 98
SWIDTH 540 0
DWIDTH 9 0
BBX 8 12 0 0
VVECTOR 4 16
SWIDTH1 0 -1200
DWIDTH1 0 -20
BITMAP 
20
E0
60
60
6E
73
63
63
63
63
63
3E
ENDCHAR
STARTCHAR c
ENCODING 99
SWIDTH 420 0
DWIDTH 7 0
BBX 6 8 0 0
VVECTOR 3 16
SWIDTH1 0 -1200
DWIDTH1 0 -20
BITMAP 
78
CC
CC
C0
C0
C0
CC
78
ENDCHAR
STARTCHAR d
ENCODING 100
SWIDTH 540 0
DWIDTH 9 0
BBX 8 12 0 0
VVECTOR 4 16
SWIDTH1 0 -1200
DWIDTH1 0 -20
BITMAP 
02
0E
06
06
76
CE
C6
C6
C6
C6
CE
77
ENDCHAR
STARTCHAR e
ENCODING 101
SWIDTH 420 0
DWIDTH 7 0
BBX 6 8 0 0
VVECTOR 3 16
SWIDTH1 0 -1200
DWIDTH1 0 -20
BITMAP 
78
CC
CC
FC
C0
C0
CC
78
ENDCHAR
STARTCHAR f
ENCODING 102
SWIDTH 360 0
DWIDTH 6 0
BBX 5 12 0 0
VVECTOR 2 16
SWIDTH1 0 -1200
DWIDTH1 0 -20
BITMAP 
38
68
60
60
F8
60
60
60
60
60
60
70
ENDCHAR
STARTCHAR g
ENCODING 103
SWIDTH 420 0
DWIDTH 7 0
BBX 7 12 0 -4
VVECTOR 4 16
SWIDTH1 0 -1200
DWIDTH1 0 -20
BITMAP 
78
CE
CC
CC
CC
78
40
FC
7E
86
C4
78
ENDCHAR
STARTCHAR h
ENCODING 104
SWIDTH 540 0
DWIDTH 9 0
BBX 8 12 0 0
VVECTOR 4 16
SWIDTH1 0 -1200
DWIDTH1 0 -20
BITMAP 
E0
60
60
60
6C
76
66
66
66
66
66
77
ENDCHAR
STARTCHAR i
ENCODING 105
SWIDTH 300 0
DWIDTH 5 0
BBX 4 12 0 0
VVECTOR 2 16
SWIDTH1 0 -1200
DWIDTH1 0 -20
BITMAP 
60
60
00
00
E0
60
60
60
60
60
60
70
ENDCHAR
STARTCHAR j
ENCODING 106
SWIDTH 300 0
DWIDTH 5 0
BBX 3 16 0 -4
VVECTOR 1 16
SWIDTH1 0 -1200
DWIDTH1 0 -20
BITMAP 
60
60
00
00
E0
60
60
60
60
60
60
60
60
60
60
C0
ENDCHAR
STARTCHAR k
ENCODING 107
SWIDTH 540 0
DWIDTH 9 0
BBX 8 12 0 0
VVECTOR 4 16
SWIDTH1 0 -1200
DWIDTH1 0 -20
BITMAP 
20
E0
60
60
67
64
68
78
6C
6C
66
77
ENDCHAR
STARTCHAR l
ENCODING 108
SWIDTH 300 0
DWIDTH 5 0
BBX 4 12 0 0
VVECTOR 2 16
SWIDTH1 0 -1200
DWIDTH1 0 -20
BITMAP 
20
E0
60
60
60
60
60
60
60
60
60
70
ENDCHAR
STARTCHAR m
ENCODING 109
SWIDTH 780 0
DWIDTH 13 0
BBX 12 8 0 0
VVECTOR 6 16
SWIDTH1 0 -1200
DWIDTH1 0 -20
BITMAP 
ECC0
7760
6660
6660
6660
6660
6660
7770
ENDCHAR
STARTCHAR n
ENCODING 110
SWIDTH 540 0
DWIDTH 9 0
BBX 8 8 0 0
VVECTOR 4 16
SWIDTH1 0 -1200
DWIDTH1 0 -20
BITMAP 
EC
76
66
66
66
66
66
77
ENDCHAR
STARTCHAR o
ENCODING 111
SWIDTH 480 0
DWIDTH 8 0
BBX 7 8 0 0
VVECTOR 3 16
SWIDTH1 0 -1200
DWIDTH1 0 -20
BITMAP 
7C
C6
C6
C6
C6
C6
C6
7C
ENDCHAR
STARTCHAR p
ENCODING 112
SWIDTH 540 0
DWIDTH 9 0
BBX 8 12 0 -4
VVECTOR 4 16
SWIDTH1 0 -1200
DWIDTH1 0 -20
BITMAP 
EE
73
63
63
63
63
73
6E
60
60
60
70
ENDCHAR
STARTCHAR q
ENCODING 113
SWIDTH 540 0
DWIDTH 9 0
BBX 8 12 0 -4
VVECTOR 4 16
SWIDTH1 0 -1200
DWIDTH1 0 -20
BITMAP 
77
CE
C6
C6
C6
C6
CE
76
06
06
06
07
ENDCHAR
STARTCHAR r
ENCODING 114
SWIDTH 360 0
DWIDTH 6 0
BBX 5 8 0 0
VVECTOR 2 16
SWIDTH1 0 -1200
DWIDTH1 0 -20
BITMAP 
F8
68
60
60
60
60
60
70
ENDCHAR
STARTCHAR s
ENCODING 115
SWIDTH 360 0
DWIDTH 6 0
BBX 5 8 0 0
VVECTOR 2 16
SWIDTH1 0 -1200
DWIDTH1 0 -20
BITMAP 
78
C8
C0
60
30
18
98
F0
ENDCHAR
STARTCHAR t
ENCODING 116
SWIDTH 300 0
DWIDTH 5 0
BBX 4 10 0 0
VVECTOR 2 16
SWIDTH1 0 -1200
DWIDTH1 0 -20
BITMAP 
20
60
F0
60
60
60
60
60
60
30
ENDCHAR
STARTCHAR u
ENCODING 117
SWIDTH 540 0
DWIDTH 9 0
BBX 8 8 0 0
VVECTOR 4 16
SWIDTH1 0 -1200
DWIDTH1 0 -20
BITMAP 
EE
66
66
66
66
66
6E
37
ENDCHAR
STARTCHAR v
ENCODING 118
SWIDTH 480 0
DWIDTH 8 0
BBX 8 8 0 0
VVECTOR 4 16
SWIDTH1 0 -1200
DWIDTH1 0 -20
BITMAP 
F7
62
62
34
34
34
18
18
ENDCHAR
STARTCHAR w
ENCODING 119
SWIDTH 720 0
DWIDTH 12 0
BBX 12 8 0 0
VVECTOR 6 16
SWIDTH1 0 -1200
DWIDTH1 0 -20
BITMAP 
F770
6620
6620
3340
3340
3740
1980
1980
ENDCHAR
STARTCHAR x
ENCODING 120
SWIDTH 540 0
DWIDTH 9 0
BBX 8 8 0 0
VVECTOR 4 16
SWIDTH1 0 -1200
DWIDTH1 0 -20
BITMAP 
F7
62
34
18
18
2C
46
EF
ENDCHAR
STARTCHAR y
ENCODING 121
SWIDTH 480 0
DWIDTH 8 0
BBX 8 12 0 -4
VVECTOR 4 16
SWIDTH1 0 -1200
DWIDTH1 0 -20
BITMAP 
F7
62
62
34
34
34
18
18
08
10
D0
E0
ENDCHAR
STARTCHAR z
ENCODING 122
SWIDTH 420 0
DWIDTH 7 0
BBX 6 8 0 0
VVECTOR 3 16
SWIDTH1 0 -1200
DWIDTH1 0 -20
BITMAP 
FC
8C
18
30
30
60
C4
FC
ENDCHAR
STARTCHAR braceleft
ENCODING 123
SWIDTH 480 0
DWIDTH 8 0
BBX 6 15 1 -4
VVECTOR 4 16
SWIDTH1 0 -1200
DWIDTH1 0 -20
BITMAP 
0C
10
30
30
30
30
20
C0
20
30
30
30
30
10
0C
ENDCHAR
STARTCHAR bar
ENCODING 124
SWIDTH 180 0
DWIDTH 3 0
BBX 1 16 1 -4
VVECTOR 2 16
SWIDTH1 0 -1200
DWIDTH1 0 -20
BITMAP 
80
80
80
80
80
80
80
80
80
80
80
80
80
80
80
80
ENDCHAR
STARTCHAR braceright
ENCODING 125
SWIDTH 480 0
DWIDTH 8 0
BBX 6 15 1 -4
VVECTOR 4 16
SWIDTH1 0 -1200
DWIDTH1 0 -20
BITMAP 
C0
20
30
30
30
30
10
0C
10
30
30
30
30
20
C0
ENDCHAR
STARTCHAR asciitilde
ENCODING 126
SWIDTH 360 0
DWIDTH 6 0
BBX 6 2 0 9
VVECTOR 3 16
SWIDTH1 0 -1200
DWIDTH1 0 -20
BITMAP 
74
98
ENDCHAR
STARTCHAR house
ENCODING 127
SWIDTH 840 0
DWIDTH 14 0
BBX 13 13 0 0
VVECTOR 6 16
SWIDTH1 0 -1200
DWIDTH1 0 -20
BITMAP 
0200
0500
0880
1040
2020
4010
8008
8008
8008
8008
8008
8008
FFF8
ENDCHAR
STARTCHAR Ccedilla
ENCODING 128
SWIDTH 660 0
DWIDTH 11 0
BBX 9 15 1 -4
VVECTOR 6 16
SWIDTH1 0 -1200
DWIDTH1 0 -20
BITMAP 
1E80
7380
6180
C080
C000
C000
C000
C000
6080
7380
1E00
0800
0C00
2200
1C00
ENDCHAR
STARTCHAR udieresis
ENCODING 129
SWIDTH 540 0
DWIDTH 9 0
BBX 8 12 0 0
VVECTOR 4 16
SWIDTH1 0 -1200
DWIDTH1 0 -20
BITMAP 
6C
6C
00
00
EE
66
66
66
66
66
6E
37
ENDCHAR
STARTCHAR eacute
ENCODING 130
SWIDTH 420 0
DWIDTH 7 0
BBX 6 13 0 0
VVECTOR 3 16
SWIDTH1 0 -1200
DWIDTH1 0 -20
BITMAP 
0C
18
20
00
00
78
CC
CC
FC
C0
C0
CC
78
ENDCHAR
STARTCHAR acircumflex
ENCODING 131
SWIDTH 420 0
DWIDTH 7 0
BBX 7 13 0 0
VVECTOR 4 16
SWIDTH1 0 -1200
DWIDTH1 0 -20
BITMAP 
38
6C
C6
00
00
78
CC
0C
7C
CC
CC
CC
7C
ENDCHAR
STARTCHAR adieresis
ENCODING 132
SWIDTH 420 0
DWIDTH 7 0
BBX 6 12 0 0
VVECTOR 3 16
SWIDTH1 0 -1200
DWIDTH1 0 -20
BITMAP 
6C
6C
00
00
78
CC
0C
7C
CC
CC
CC
7C
ENDCHAR
STARTCHAR agrave
ENCODING 133
SWIDTH 420 0
DWIDTH 7 0
BBX 6 13 0 0
VVECTOR 3 16
SWIDTH1 0 -1200
DWIDTH1 0 -20
BITMAP 
60
30
08
00
00
78
CC
0C
7C
CC
CC
CC
7C
ENDCHAR
STARTCHAR aring
ENCODING 134
SWIDTH 420 0
DWIDTH 7 0
BBX 6 13 0 0
VVECTOR 3 16
SWIDTH1 0 -1200
DWIDTH1 0 -20
BITMAP 
30
48
48
30
00
78
CC
0C
7C
CC
CC
CC
7C
ENDCHAR
STARTCHAR ccedilla
ENCODING 135
SWIDTH 420 0
DWIDTH 7 0
BBX 6 12 0 -4
VVECTOR 3 16
SWIDTH1 0 -1200
DWIDTH1 0 -20
BITMAP 
78
CC
CC
C0
C0
C0
CC
78
20
30
88
70
ENDCHAR
STARTCHAR ecircumflex
ENCODING 136
SWIDTH 420 0
DWIDTH 7 0
BBX 7 13 0 0
VVECTOR 4 16
SWIDTH1 0 -1200
DWIDTH1 0 -20
BITMAP 
38
6C
C6
00
00
78
CC
CC
FC
C0
C0
CC
78
ENDCHAR
STARTCHAR edieresis
ENCODING 137
SWIDTH 420 0
DWIDTH 7 0
BBX 6 12 0 0
VVECTOR 3 16
SWIDTH1 0 -1200
DWIDTH1 0 -20
BITMAP 
6C
6C
00
00
78
CC
CC
FC
C0
C0
CC
78
ENDCHAR
STARTCHAR egrave
ENCODING 138
SWIDTH 420 0
DWIDTH 7 0
BBX 6 13 0 0
VVECTOR 3 16
SWIDTH1 0 -1200
DWIDTH1 0 -20
BITMAP 
60
30
08
00
00
78
CC
CC
FC
C0
C0
CC
78
ENDCHAR
STARTCHAR idieresis
ENCODING 139
SWIDTH 300 0
DWIDTH 5 0
BBX 5 12 0 0
VVECTOR 3 16
SWIDTH1 0 -1200
DWIDTH1 0 -20
BITMAP 
D8
D8
00
00
E0
60
60
60
60
60
60
70
ENDCHAR
STARTCHAR icircumflex
ENCODING 140
SWIDTH 300 0
DWIDTH 5 0
BBX 5 13 0 0
VVECTOR 3 16
SWIDTH1 0 -1200
DWIDTH1 0 -20
BITMAP 
20
70
D8
00
00
E0
60
60
60
60
60
60
70
ENDCHAR
STARTCHAR igrave
ENCODING 141
SWIDTH 300 0
DWIDTH 5 0
BBX 4 13 0 0
VVECTOR 2 16
SWIDTH1 0 -1200
DWIDTH1 0 -20
BITMAP 
C0
60
10
00
00
E0
60
60
60
60
60
60
70
ENDCHAR
STARTCHAR Adieresis
ENCODING 142
SWIDTH 720 0
DWIDTH 12 0
BBX 12 15 0 0
VVECTOR 6 16
SWIDTH1 0 -1200
DWIDTH1 0 -20
BITMAP 
0D80
0D80
0000
0000
0600
0600
0B00
0B00
1980
1180
1F80
30C0
20C0
6060
F0F0
ENDCHAR
STARTCHAR Aring
ENCODING 143
SWIDTH 720 0
DWIDTH 12 0
BBX 12 16 0 0
VVECTOR 6 16
SWIDTH1 0 -1200
DWIDTH1 0 -20
BITMAP 
0600
0900
0900
0600
0000
0600
0600
0B00
0B00
1980
1180
1F80
30C0
20C0
6060
F0F0
ENDCHAR
STARTCHAR Eacute
ENCODING 144
SWIDTH 660 0
DWIDTH 11 0
BBX 9 16 1 0
VVECTOR 6 16
SWIDTH1 0 -1200
DWIDTH1 0 -20
BITMAP 
0600
0C00
1000
0000
0000
FF00
6100
6100
6000
6200
7E00
6200
6000
6080
6180
FF00
ENDCHAR
STARTCHAR ae
ENCODING 145
SWIDTH 660 0
DWIDTH 11 0
BBX 10 8 0 0
VVECTOR 5 16
SWIDTH1 0 -1200
DWIDTH1 0 -20
BITMAP 
7F80
CCC0
0CC0
7FC0
CC00
CC00
CCC0
7780
ENDCHAR
STARTCHAR AE
ENCODING 146
SWIDTH 900 0
DWIDTH 15 0
BBX 15 11 0 0
VVECTOR 8 16
SWIDTH1 0 -1200
DWIDTH1 0 -20
BITMAP 
0FFC
0584
0584
0980
0988
11F8
1F88
3180
2182
6186
F3FC
ENDCHAR
STARTCHAR ocircumflex
ENCODING 147
SWIDTH 480 0
DWIDTH 8 0
BBX 7 13 0 0
VVECTOR 3 16
SWIDTH1 0 -1200
DWIDTH1 0 -20
BITMAP 
38
6C
C6
00
00
7C
C6
C6
C6
C6
C6
C6
7C
ENDCHAR
STARTCHAR odieresis
ENCODING 148
SWIDTH 480 0
DWIDTH 8 0
BBX 7 12 0 0
VVECTOR 3 16
SWIDTH1 0 -1200
DWIDTH1 0 -20
BITMAP 
6C
6C
00
00
7C
C6
C6
C6
C6
C6
C6
7C
ENDCHAR
STARTCHAR ograve
ENCODING 149
SWIDTH 480 0
DWIDTH 8 0
BBX 7 13 0 0
VVECTOR 3 16
SWIDTH1 0 -1200
DWIDTH1 0 -20
BITMAP 
60
30
08
00
00
7C
C6
C6
C6
C6
C6
C6
7C
ENDCHAR
STARTCHAR ucircumflex
ENCODING 150
SWIDTH 540 0
DWIDTH 9 0
BBX 8 13 0 0
VVECTOR 4 16
SWIDTH1 0 -1200
DWIDTH1 0 -20
BITMAP 
18
3C
66
00
00
EE
66
66
66
66
66
6E
37
ENDCHAR
STARTCHAR ugrave
ENCODING 151
SWIDTH 540 0
DWIDTH 9 0
BBX 8 13 0 0
VVECTOR 4 16
SWIDTH1 0 -1200
DWIDTH1 0 -20
BITMAP 
60
30
08
00
00
EE
66
66
66
66
66
6E
37
ENDCHAR
STARTCHAR ydieresis
ENCODING 152
SWIDTH 480 0
DWIDTH 8 0
BBX 8 16 0 -4
VVECTOR 4 16
SWIDTH1 0 -1200
DWIDTH1 0 -20
BITMAP 
36
36
00
00
F7
62
62
34
34
34
18
18
08
10
D0
E0
ENDCHAR
STARTCHAR Odieresis
ENCODING 153
SWIDTH 720 0
DWIDTH 12 0
BBX 10 15 1 0
VVECTOR 6 16
SWIDTH1 0 -1200
DWIDTH1 0 -20
BITMAP 
1B00
1B00
0000
0000
1E00
7380
6180
C0C0
C0C0
C0C0
C0C0
C0C0
6180
7380
1E00
ENDCHAR
STARTCHAR Udieresis
ENCODING 154
SWIDTH 720 0
DWIDTH 12 0
BBX 10 15 1 0
VVECTOR 6 16
SWIDTH1 0 -1200
DWIDTH1 0 -20
BITMAP 
1B00
1B00
0000
0000
F1C0
6080
6080
6080
6080
6080
6080
6080
6080
3100
1E00
ENDCHAR
STARTCHAR oslash
ENCODING 155
SWIDTH 480 0
DWIDTH 8 0
BBX 7 10 0 -1
VVECTOR 3 16
SWIDTH1 0 -1200
DWIDTH1 0 -20
BITMAP 
02
7C
C6
CE
D6
D6
E6
C6
7C
80
ENDCHAR
STARTCHAR sterling
ENCODING 156
SWIDTH 480 0
DWIDTH 8 0
BBX 7 11 0 0
VVECTOR 3 16
SWIDTH1 0 -1200
DWIDTH1 0 -20
BITMAP 
1C
36
36
30
30
7C
30
30
70
BA
CC
ENDCHAR
STARTCHAR Oslash
ENCODING 157
SWIDTH 720 0
DWIDTH 12 0
BBX 10 13 1 -1
VVECTOR 6 16
SWIDTH1 0 -1200
DWIDTH1 0 -20
BITMAP 
0080
1F00
7380
6380
C6C0
C4C0
CCC0
C8C0
D8C0
7180
7380
3E00
4000
ENDCHAR
STARTCHAR multiply
ENCODING 158
SWIDTH 540 0
DWIDTH 9 0
BBX 7 7 1 1
VVECTOR 5 16
SWIDTH1 0 -1200
DWIDTH1 0 -20
BITMAP 
82
44
28
10
28
44
82
ENDCHAR
STARTCHAR florin
ENCODING 159
SWIDTH 480 0
DWIDTH 8 0
BBX 7 15 0 -4
VVECTOR 3 16
SWIDTH1 0 -1200
DWIDTH1 0 -20
BITMAP 
06
0A
08
18
18
7E
18
10
10
30
30
30
20
A0
C0
ENDCHAR
STARTCHAR aacute
ENCODING 160
SWIDTH 420 0
DWIDTH 7 0
BBX 6 13 0 0
VVECTOR 3 16
SWIDTH1 0 -1200
DWIDTH1 0 -20
BITMAP 
0C
18
20
00
00
78
CC
0C
7C
CC
CC
CC
7C
ENDCHAR
STARTCHAR iacute
ENCODING 161
SWIDTH 300 0
DWIDTH 5 0
BBX 5 13 0 0
VVECTOR 3 16
SWIDTH1 0 -1200
DWIDTH1 0 -20
BITMAP 
18
30
40
00
00
E0
60
60
60
60
60
60
70
ENDCHAR
STARTCHAR oacute
ENCODING 162
SWIDTH 480 0
DWIDTH 8 0
BBX 7 13 0 0
VVECTOR 3 16
SWIDTH1 0 -1200
DWIDTH1 0 -20
BITMAP 
0C
18
20
00
00
7C
C6
C6
C6
C6
C6
C6
7C
ENDCHAR
STARTCHAR uacute
ENCODING 163
SWIDTH 540 0
DWIDTH 9 0
BBX 8 13 0 0
VVECTOR 4 16
SWIDTH1 0 -1200
DWIDTH1 0 -20
BITMAP 
06
0C
10
00
00
EE
66
66
66
66
66
6E
37
ENDCHAR
STARTCHAR ntilde
ENCODING 164
SWIDTH 540 0
DWIDTH 9 0
BBX 8 12 0 0
VVECTOR 4 16
SWIDTH1 0 -1200
DWIDTH1 0 -20
BITMAP 
72
9C
00
00
EC
76
66
66
66
66
66
77
ENDCHAR
STARTCHAR Ntilde
ENCODING 165
SWIDTH 720 0
DWIDTH 12 0
BBX 10 15 1 0
VVECTOR 6 16
SWIDTH1 0 -1200
DWIDTH1 0 -20
BITMAP 
1C80
2700
0000
0000
E1C0
7080
7080
5880
4C80
4C80
4680
4380
4380
4180
E080
ENDCHAR
STARTCHAR ordfeminine
ENCODING 166
SWIDTH 300 0
DWIDTH 5 0
BBX 4 7 0 4
VVECTOR 2 16
SWIDTH1 0 -1200
DWIDTH1 0 -20
BITMAP 
60
10
70
90
70
00
F0
ENDCHAR
STARTCHAR ordmasculine
ENCODING 167
SWIDTH 300 0
DWIDTH 5 0
BBX 4 7 0 4
VVECTOR 2 16
SWIDTH1 0 -1200
DWIDTH1 0 -20
BITMAP 
60
90
90
90
60
00
F0
ENDCHAR
STARTCHAR questiondown
ENCODING 168
SWIDTH 420 0
DWIDTH 7 0
BBX 6 11 0 0
VVECTOR 3 16
SWIDTH1 0 -1200
DWIDTH1 0 -20
BITMAP 
30
30
00
10
10
30
60
C0
C4
CC
78
ENDCHAR
STARTCHAR registered
ENCODING 169
SWIDTH 780 0
DWIDTH 13 0
BBX 12 12 0 0
VVECTOR 6 16
SWIDTH1 0 -1200
DWIDTH1 0 -20
BITMAP 
0F00
30C0
4020
5F20
9990
9990
9F10
9990
59A0
4020
30C0
0F00
ENDCHAR
STARTCHAR logicalnot
ENCODING 170
SWIDTH 540 0
DWIDTH 9 0
BBX 7 4 1 3
VVECTOR 5 16
SWIDTH1 0 -1200
DWIDTH1 0 -20
BITMAP 
FE
02
02
02
ENDCHAR
STARTCHAR onehalf
ENCODING 171
SWIDTH 720 0
DWIDTH 12 0
BBX 11 11 0 0
VVECTOR 5 16
SWIDTH1 0 -1200
DWIDTH1 0 -20
BITMAP 
4080
C080
4100
4200
42C0
4520
E820
0840
1080
2120
21E0
ENDCHAR
STARTCHAR onequarter
ENCODING 172
SWIDTH 720 0
DWIDTH 12 0
BBX 11 11 0 0
VVECTOR 5 16
SWIDTH1 0 -1200
DWIDTH1 0 -20
BITMAP 
4080
C080
4100
4200
4240
44C0
E940
0A40
13E0
2040
2040
ENDCHAR
STARTCHAR exclamdown
ENCODING 173
SWIDTH 360 0
DWIDTH 6 0
BBX 2 11 2 0
VVECTOR 3 16
SWIDTH1 0 -1200
DWIDTH1 0 -20
BITMAP 
C0
C0
00
40
40
40
C0
C0
C0
C0
C0
ENDCHAR
STARTCHAR guillemotleft
ENCODING 174
SWIDTH 480 0
DWIDTH 8 0
BBX 6 6 1 1
VVECTOR 4 16
SWIDTH1 0 -1200
DWIDTH1 0 -20
BITMAP 
24
48
D8
D8
48
24
ENDCHAR
STARTCHAR guillemotright
ENCODING 175
SWIDTH 480 0
DWIDTH 8 0
BBX 6 6 1 1
VVECTOR 4 16
SWIDTH1 0 -1200
DWIDTH1 0 -20
BITMAP 
90
48
6C
6C
48
90
ENDCHAR
STARTCHAR ltshade
ENCODING 176
SWIDTH 1080 0
DWIDTH 18 0
BBX 15 13 0 -1
VVECTOR 6 16
SWIDTH1 0 -1200
DWIDTH1 0 -20
BITMAP 
E38E
E38E
E38E
0000
0000
E38E
E38E
E38E
0000
0000
E38E
E38E
E38E
ENDCHAR
STARTCHAR shade
ENCODING 177
SWIDTH 1080 0
DWIDTH 18 0
BBX 18 16 0 -4
VVECTOR 9 16
SWIDTH1 0 -1200
DWIDTH1 0 -20
BITMAP 
E38E00
E38E00
E38E00
1C71C0
1C71C0
1C71C0
E38E00
E38E00
1C71C0
1C71C0
1C71C0
E38E00
E38E00
1C71C0
1C71C0
1C71C0
ENDCHAR
STARTCHAR dkshade
ENCODING 178
SWIDTH 1080 0
DWIDTH 18 0
BBX 18 16 0 -4
VVECTOR 9 16
SWIDTH1 0 -1200
DWIDTH1 0 -20
BITMAP 
FFFFC0
FFFFC0
FFFFC0
E38E00
E38E00
E38E00
FFFFC0
FFFFC0
E38E00
E38E00
E38E00
FFFFC0
FFFFC0
E38E00
E38E00
E38E00
ENDCHAR
STARTCHAR SF110000
ENCODING 179
SWIDTH 960 0
DWIDTH 16 0
BBX 1 16 8 -4
VVECTOR 9 16
SWIDTH1 0 -1200
DWIDTH1 0 -20
BITMAP 
80
80
80
80
80
80
80
80
80
80
80
80
80
80
80
80
ENDCHAR
STARTCHAR SF090000
ENCODING 180
SWIDTH 960 0
DWIDTH 16 0
BBX 9 16 0 -4
VVECTOR 1 16
SWIDTH1 0 -1200
DWIDTH1 0 -20
BITMAP 
0080
0080
0080
0080
0080
0080
0080
FF80
0080
0080
0080
0080
0080
0080
0080
0080
ENDCHAR
STARTCHAR Aacute
ENCODING 181
SWIDTH 720 0
DWIDTH 12 0
BBX 12 16 0 0
VVECTOR 6 16
SWIDTH1 0 -1200
DWIDTH1 0 -20
BITMAP 
0180
0300
0400
0000
0000
0600
0600
0B00
0B00
1980
1180
1F80
30C0
20C0
6060
F0F0
ENDCHAR
STARTCHAR Acircumflex
ENCODING 182
SWIDTH 720 0
DWIDTH 12 0
BBX 12 16 0 0
VVECTOR 6 16
SWIDTH1 0 -1200
DWIDTH1 0 -20
BITMAP 
0700
0D80
18C0
0000
0000
0600
0600
0B00
0B00
1980
1180
1F80
30C0
20C0
6060
F0F0
ENDCHAR
STARTCHAR Agrave
ENCODING 183
SWIDTH 720 0
DWIDTH 12 0
BBX 12 16 0 0
VVECTOR 6 16
SWIDTH1 0 -1200
DWIDTH1 0 -20
BITMAP 
1800
0C00
0200
0000
0000
0600
0600
0B00
0B00
1980
1180
1F80
30C0
20C0
6060
F0F0
ENDCHAR
STARTCHAR copyright
ENCODING 184
SWIDTH 780 0
DWIDTH 13 0
BBX 12 12 0 0
VVECTOR 6 16
SWIDTH1 0 -1200
DWIDTH1 0 -20
BITMAP 
0F00
30C0
4020
4F20
9990
9810
9810
9990
4F20
4020
30C0
0F00
ENDCHAR
STARTCHAR SF230000
ENCODING 185
SWIDTH 960 0
DWIDTH 16 0
BBX 10 16 0 -4
VVECTOR 2 16
SWIDTH1 0 -1200
DWIDTH1 0 -20
BITMAP 
0240
0240
0240
0240
0240
0240
FE40
0040
0040
FE40
0240
0240
0240
0240
0240
0240
ENDCHAR
STARTCHAR SF240000
ENCODING 186
SWIDTH 960 0
DWIDTH 16 0
BBX 4 16 6 -4
VVECTOR 8 16
SWIDTH1 0 -1200
DWIDTH1 0 -20
BITMAP 
90
90
90
90
90
90
90
90
90
90
90
90
90
90
90
90
ENDCHAR
STARTCHAR SF250000
ENCODING 187
SWIDTH 960 0
DWIDTH 16 0
BBX 10 10 0 -4
VVECTOR 2 16
SWIDTH1 0 -1200
DWIDTH1 0 -20
BITMAP 
FFC0
0040
0040
FE40
0240
0240
0240
0240
0240
0240
ENDCHAR
STARTCHAR SF260000
ENCODING 188
SWIDTH 960 0
DWIDTH 16 0
BBX 10 10 0 2
VVECTOR 2 16
SWIDTH1 0 -1200
DWIDTH1 0 -20
BITMAP 
0240
0240
0240
0240
0240
0240
FE40
0040
0040
FFC0
ENDCHAR
STARTCHAR cent
ENCODING 189
SWIDTH 480 0
DWIDTH 8 0
BBX 7 12 0 -2
VVECTOR 3 16
SWIDTH1 0 -1200
DWIDTH1 0 -20
BITMAP 
02
02
3C
66
CE
C8
D0
D0
62
3C
40
40
ENDCHAR
STARTCHAR yen
ENCODING 190
SWIDTH 480 0
DWIDTH 8 0
BBX 8 11 0 0
VVECTOR 4 16
SWIDTH1 0 -1200
DWIDTH1 0 -20
BITMAP 
F3
62
62
F7
34
FF
18
18
18
18
3C
ENDCHAR
STARTCHAR SF030000
ENCODING 191
SWIDTH 960 0
DWIDTH 16 0
BBX 9 9 0 -4
VVECTOR 1 16
SWIDTH1 0 -1200
DWIDTH1 0 -20
BITMAP 
FF80
0080
0080
0080
0080
0080
0080
0080
0080
ENDCHAR
STARTCHAR SF020000
ENCODING 192
SWIDTH 960 0
DWIDTH 16 0
BBX 8 8 8 4
VVECTOR 16 16
SWIDTH1 0 -1200
DWIDTH1 0 -20
BITMAP 
80
80
80
80
80
80
80
FF
ENDCHAR
STARTCHAR SF070000
ENCODING 193
SWIDTH 960 0
DWIDTH 16 0
BBX 16 8 0 4
VVECTOR 8 16
SWIDTH1 0 -1200
DWIDTH1 0 -20
BITMAP 
0080
0080
0080
0080
0080
0080
0080
FFFF
ENDCHAR
STARTCHAR SF060000
ENCODING 194
SWIDTH 960 0
DWIDTH 16 0
BBX 16 9 0 -4
VVECTOR 8 16
SWIDTH1 0 -1200
DWIDTH1 0 -20
BITMAP 
FFFF
0080
0080
0080
0080
0080
0080
0080
0080
ENDCHAR
STARTCHAR SF080000
ENCODING 195
SWIDTH 960 0
DWIDTH 16 0
BBX 8 16 8 -4
VVECTOR 16 16
SWIDTH1 0 -1200
DWIDTH1 0 -20
BITMAP 
80
80
80
80
80
80
80
FF
80
80
80
80
80
80
80
80
ENDCHAR
STARTCHAR SF100000
ENCODING 196
SWIDTH 960 0
DWIDTH 16 0
BBX 16 1 0 4
VVECTOR 8 16
SWIDTH1 0 -1200
DWIDTH1 0 -20
BITMAP 
FFFF
ENDCHAR
STARTCHAR SF050000
ENCODING 197
SWIDTH 960 0
DWIDTH 16 0
BBX 16 16 0 -4
VVECTOR 8 16
SWIDTH1 0 -1200
DWIDTH1 0 -20
BITMAP 
0080
0080
0080
0080
0080
0080
0080
FFFF
0080
0080
0080
0080
0080
0080
0080
0080
ENDCHAR
STARTCHAR atilde
ENCODING 198
SWIDTH 420 0
DWIDTH 7 0
BBX 7 12 0 0
VVECTOR 4 16
SWIDTH1 0 -1200
DWIDTH1 0 -20
BITMAP 
72
9C
00
00
78
CC
0C
7C
CC
CC
CC
7C
ENDCHAR
STARTCHAR Atilde
ENCODING 199
SWIDTH 720 0
DWIDTH 12 0
BBX 12 15 0 0
VVECTOR 6 16
SWIDTH1 0 -1200
DWIDTH1 0 -20
BITMAP 
0E40
1380
0000
0000
0600
0600
0B00
0B00
1980
1180
1F80
30C0
20C0
6060
F0F0
ENDCHAR
STARTCHAR SF380000
ENCODING 200
SWIDTH 960 0
DWIDTH 16 0
BBX 10 10 6 2
VVECTOR 14 16
SWIDTH1 0 -1200
DWIDTH1 0 -20
BITMAP 
9000
9000
9000
9000
9000
9000
9FC0
8000
8000
FFC0
ENDCHAR
STARTCHAR SF390000
ENCODING 201
SWIDTH 960 0
DWIDTH 16 0
BBX 10 10 6 -4
VVECTOR 14 16
SWIDTH1 0 -1200
DWIDTH1 0 -20
BITMAP 
FFC0
8000
8000
9FC0
9000
9000
9000
9000
9000
9000
ENDCHAR
STARTCHAR SF400000
ENCODING 202
SWIDTH 960 0
DWIDTH 16 0
BBX 16 10 0 2
VVECTOR 8 16
SWIDTH1 0 -1200
DWIDTH1 0 -20
BITMAP 
0240
0240
0240
0240
0240
0240
FE7F
0000
0000
FFFF
ENDCHAR
STARTCHAR SF410000
ENCODING 203
SWIDTH 960 0
DWIDTH 16 0
BBX 16 10 0 -4
VVECTOR 8 16
SWIDTH1 0 -1200
DWIDTH1 0 -20
BITMAP 
FFFF
0000
0000
FE7F
0240
0240
0240
0240
0240
0240
ENDCHAR
STARTCHAR SF420000
ENCODING 204
SWIDTH 960 0
DWIDTH 16 0
BBX 10 16 6 -4
VVECTOR 14 16
SWIDTH1 0 -1200
DWIDTH1 0 -20
BITMAP 
9000
9000
9000
9000
9000
9000
9FC0
8000
8000
9FC0
9000
9000
9000
9000
9000
9000
ENDCHAR
STARTCHAR SF430000
ENCODING 205
SWIDTH 960 0
DWIDTH 16 0
BBX 16 4 0 2
VVECTOR 8 16
SWIDTH1 0 -1200
DWIDTH1 0 -20
BITMAP 
FFFF
0000
0000
FFFF
ENDCHAR
STARTCHAR SF440000
ENCODING 206
SWIDTH 960 0
DWIDTH 16 0
BBX 16 16 0 -4
VVECTOR 8 16
SWIDTH1 0 -1200
DWIDTH1 0 -20
BITMAP 
0240
0240
0240
0240
0240
0240
FE7F
0000
0000
FE7F
0240
0240
0240
0240
0240
0240
ENDCHAR
STARTCHAR currency
ENCODING 207
SWIDTH 480 0
DWIDTH 8 0
BBX 8 8 0 3
VVECTOR 4 16
SWIDTH1 0 -1200
DWIDTH1 0 -20
BITMAP 
81
5A
24
42
42
24
5A
81
ENDCHAR
STARTCHAR eth
ENCODING 208
SWIDTH 480 0
DWIDTH 8 0
BBX 7 12 0 0
VVECTOR 3 16
SWIDTH1 0 -1200
DWIDTH1 0 -20
BITMAP 
E6
38
38
CC
0C
7E
C6
C6
C6
C6
C6
7C
ENDCHAR
STARTCHAR Eth
ENCODING 209
SWIDTH 660 0
DWIDTH 11 0
BBX 9 11 1 0
VVECTOR 6 16
SWIDTH1 0 -1200
DWIDTH1 0 -20
BITMAP 
FC00
6700
6300
6180
6180
F980
6180
6180
6300
6700
FC00
ENDCHAR
STARTCHAR Ecircumflex
ENCODING 210
SWIDTH 660 0
DWIDTH 11 0
BBX 9 16 1 0
VVECTOR 6 16
SWIDTH1 0 -1200
DWIDTH1 0 -20
BITMAP 
1C00
3600
6300
0000
0000
FF00
6100
6100
6000
6200
7E00
6200
6000
6080
6180
FF00
ENDCHAR
STARTCHAR Edieresis
ENCODING 211
SWIDTH 660 0
DWIDTH 11 0
BBX 9 15 1 0
VVECTOR 6 16
SWIDTH1 0 -1200
DWIDTH1 0 -20
BITMAP 
3600
3600
0000
0000
FF00
6100
6100
6000
6200
7E00
6200
6000
6080
6180
FF00
ENDCHAR
STARTCHAR Egrave
ENCODING 212
SWIDTH 660 0
DWIDTH 11 0
BBX 9 16 1 0
VVECTOR 6 16
SWIDTH1 0 -1200
DWIDTH1 0 -20
BITMAP 
3000
1800
0400
0000
0000
FF00
6100
6100
6000
6200
7E00
6200
6000
6080
6180
FF00
ENDCHAR
STARTCHAR Euro
ENCODING 213
SWIDTH 300 0
DWIDTH 5 0
BBX 4 8 0 0
VVECTOR 2 16
SWIDTH1 0 -1200
DWIDTH1 0 -20
BITMAP 
E0
60
60
60
60
60
60
70
ENDCHAR
STARTCHAR Iacute
ENCODING 214
SWIDTH 360 0
DWIDTH 6 0
BBX 5 16 1 0
VVECTOR 4 16
SWIDTH1 0 -1200
DWIDTH1 0 -20
BITMAP 
18
30
40
00
00
F0
60
60
60
60
60
60
60
60
60
F0
ENDCHAR
STARTCHAR Icircumflex
ENCODING 215
SWIDTH 360 0
DWIDTH 6 0
BBX 6 16 0 0
VVECTOR 3 16
SWIDTH1 0 -1200
DWIDTH1 0 -20
BITMAP 
30
78
CC
00
00
78
30
30
30
30
30
30
30
30
30
78
ENDCHAR
STARTCHAR Idieresis
ENCODING 216
SWIDTH 360 0
DWIDTH 6 0
BBX 5 15 1 0
VVECTOR 4 16
SWIDTH1 0 -1200
DWIDTH1 0 -20
BITMAP 
D8
D8
00
00
F0
60
60
60
60
60
60
60
60
60
F0
ENDCHAR
STARTCHAR SF040000
ENCODING 217
SWIDTH 960 0
DWIDTH 16 0
BBX 9 8 0 4
VVECTOR 1 16
SWIDTH1 0 -1200
DWIDTH1 0 -20
BITMAP 
0080
0080
0080
0080
0080
0080
0080
FF80
ENDCHAR
STARTCHAR SF010000
ENCODING 218
SWIDTH 960 0
DWIDTH 16 0
BBX 8 9 8 -4
VVECTOR 16 16
SWIDTH1 0 -1200
DWIDTH1 0 -20
BITMAP 
FF
80
80
80
80
80
80
80
80
ENDCHAR
STARTCHAR block
ENCODING 219
SWIDTH 1020 0
DWIDTH 17 0
BBX 17 16 0 -4
VVECTOR 9 16
SWIDTH1 0 -1200
DWIDTH1 0 -20
BITMAP 
FFFF80
FFFF80
FFFF80
FFFF80
FFFF80
FFFF80
FFFF80
FFFF80
FFFF80
FFFF80
FFFF80
FFFF80
FFFF80
FFFF80
FFFF80
FFFF80
ENDCHAR
STARTCHAR dnblock
ENCODING 220
SWIDTH 1020 0
DWIDTH 17 0
BBX 17 8 0 -4
VVECTOR 9 16
SWIDTH1 0 -1200
DWIDTH1 0 -20
BITMAP 
FFFF80
FFFF80
FFFF80
FFFF80
FFFF80
FFFF80
FFFF80
FFFF80
ENDCHAR
STARTCHAR brokenbar
ENCODING 221
SWIDTH 180 0
DWIDTH 3 0
BBX 1 14 1 -3
VVECTOR 2 16
SWIDTH1 0 -1200
DWIDTH1 0 -20
BITMAP 
80
80
80
80
80
80
00
00
80
80
80
80
80
80
ENDCHAR
STARTCHAR Igrave
ENCODING 222
SWIDTH 360 0
DWIDTH 6 0
BBX 5 16 0 0
VVECTOR 2 16
SWIDTH1 0 -1200
DWIDTH1 0 -20
BITMAP 
C0
60
10
00
00
78
30
30
30
30
30
30
30
30
30
78
ENDCHAR
STARTCHAR upblock
ENCODING 223
SWIDTH 1020 0
DWIDTH 17 0
BBX 17 8 0 4
VVECTOR 9 16
SWIDTH1 0 -1200
DWIDTH1 0 -20
BITMAP 
FFFF80
FFFF80
FFFF80
FFFF80
FFFF80
FFFF80
FFFF80
FFFF80
ENDCHAR
STARTCHAR Oacute
ENCODING 224
SWIDTH 720 0
DWIDTH 12 0
BBX 10 16 1 0
VVECTOR 6 16
SWIDTH1 0 -1200
DWIDTH1 0 -20
BITMAP 
0300
0600
0800
0000
0000
1E00
7380
6180
C0C0
C0C0
C0C0
C0C0
C0C0
6180
7380
1E00
ENDCHAR
STARTCHAR germandbls
ENCODING 225
SWIDTH 480 0
DWIDTH 8 0
BBX 7 12 0 0
VVECTOR 3 16
SWIDTH1 0 -1200
DWIDTH1 0 -20
BITMAP 
78
CC
CC
CC
D8
CC
C6
C6
C6
C6
D6
DC
ENDCHAR
STARTCHAR Ocircumflex
ENCODING 226
SWIDTH 720 0
DWIDTH 12 0
BBX 10 16 1 0
VVECTOR 6 16
SWIDTH1 0 -1200
DWIDTH1 0 -20
BITMAP 
0E00
1B00
3180
0000
0000
1E00
7380
6180
C0C0
C0C0
C0C0
C0C0
C0C0
6180
7380
1E00
ENDCHAR
STARTCHAR Ograve
ENCODING 227
SWIDTH 720 0
DWIDTH 12 0
BBX 10 16 1 0
VVECTOR 6 16
SWIDTH1 0 -1200
DWIDTH1 0 -20
BITMAP 
3000
1800
0400
0000
0000
1E00
7380
6180
C0C0
C0C0
C0C0
C0C0
C0C0
6180
7380
1E00
ENDCHAR
STARTCHAR otilde
ENCODING 228
SWIDTH 480 0
DWIDTH 8 0
BBX 7 12 0 0
VVECTOR 3 16
SWIDTH1 0 -1200
DWIDTH1 0 -20
BITMAP 
72
9C
00
00
7C
C6
C6
C6
C6
C6
C6
7C
ENDCHAR
STARTCHAR Otilde
ENCODING 229
SWIDTH 720 0
DWIDTH 12 0
BBX 10 15 1 0
VVECTOR 6 16
SWIDTH1 0 -1200
DWIDTH1 0 -20
BITMAP 
1C80
2700
0000
0000
1E00
7380
6180
C0C0
C0C0
C0C0
C0C0
C0C0
6180
7380
1E00
ENDCHAR
STARTCHAR mu
ENCODING 230
SWIDTH 540 0
DWIDTH 9 0
BBX 9 12 0 -4
VVECTOR 5 16
SWIDTH1 0 -1200
DWIDTH1 0 -20
BITMAP 
1980
1100
3300
3300
2200
6600
6680
5B00
4000
C000
C000
C000
ENDCHAR
STARTCHAR thorn
ENCODING 231
SWIDTH 540 0
DWIDTH 9 0
BBX 8 16 0 -4
VVECTOR 4 16
SWIDTH1 0 -1200
DWIDTH1 0 -20
BITMAP 
20
E0
60
60
6E
73
63
63
63
63
73
6E
60
60
60
70
ENDCHAR
STARTCHAR Thorn
ENCODING 232
SWIDTH 600 0
DWIDTH 10 0
BBX 8 11 1 0
VVECTOR 5 16
SWIDTH1 0 -1200
DWIDTH1 0 -20
BITMAP 
F0
60
7C
66
63
63
66
7C
60
60
F0
ENDCHAR
STARTCHAR Uacute
ENCODING 233
SWIDTH 720 0
DWIDTH 12 0
BBX 10 16 1 0
VVECTOR 6 16
SWIDTH1 0 -1200
DWIDTH1 0 -20
BITMAP 
0300
0600
0800
0000
0000
F1C0
6080
6080
6080
6080
6080
6080
6080
6080
3100
1E00
ENDCHAR
STARTCHAR Ucircumflex
ENCODING 234
SWIDTH 720 0
DWIDTH 12 0
BBX 10 16 1 0
VVECTOR 6 16
SWIDTH1 0 -1200
DWIDTH1 0 -20
BITMAP 
0C00
1E00
3300
0000
0000
F1C0
6080
6080
6080
6080
6080
6080
6080
6080
3100
1E00
ENDCHAR
STARTCHAR Ugrave
ENCODING 235
SWIDTH 720 0
DWIDTH 12 0
BBX 10 16 1 0
VVECTOR 6 16
SWIDTH1 0 -1200
DWIDTH1 0 -20
BITMAP 
1800
0C00
0200
0000
0000
F1C0
6080
6080
6080
6080
6080
6080
6080
6080
3100
1E00
ENDCHAR
STARTCHAR yacute
ENCODING 236
SWIDTH 480 0
DWIDTH 8 0
BBX 8 17 0 -4
VVECTOR 4 16
SWIDTH1 0 -1200
DWIDTH1 0 -20
BITMAP 
06
0C
10
00
00
F7
62
62
34
34
34
18
18
08
10
D0
E0
ENDCHAR
STARTCHAR Yacute
ENCODING 237
SWIDTH 720 0
DWIDTH 12 0
BBX 10 16 1 0
VVECTOR 6 16
SWIDTH1 0 -1200
DWIDTH1 0 -20
BITMAP 
0300
0600
0800
0000
0000
F1C0
6080
3100
3100
1A00
1E00
0C00
0C00
0C00
0C00
3F00
ENDCHAR
STARTCHAR macron
ENCODING 238
SWIDTH 480 0
DWIDTH 8 0
BBX 8 1 0 12
VVECTOR 4 16
SWIDTH1 0 -1200
DWIDTH1 0 -20
BITMAP 
FF
ENDCHAR
STARTCHAR acute
ENCODING 239
SWIDTH 360 0
DWIDTH 6 0
BBX 4 3 2 10
VVECTOR 5 16
SWIDTH1 0 -1200
DWIDTH1 0 -20
BITMAP 
30
60
80
ENDCHAR
STARTCHAR uni00AD
ENCODING 240
SWIDTH 360 0
DWIDTH 6 0
BBX 4 1 1 3
VVECTOR 3 16
SWIDTH1 0 -1200
DWIDTH1 0 -20
BITMAP 
F0
ENDCHAR
STARTCHAR plusminus
ENCODING 241
SWIDTH 540 0
DWIDTH 9 0
BBX 7 10 1 0
VVECTOR 5 16
SWIDTH1 0 -1200
DWIDTH1 0 -20
BITMAP 
10
10
10
FE
10
10
10
00
00
FE
ENDCHAR
STARTCHAR underscoredbl
ENCODING 242
SWIDTH 480 0
DWIDTH 8 0
BBX 8 3 0 -4
VVECTOR 4 16
SWIDTH1 0 -1200
DWIDTH1 0 -20
BITMAP 
FF
00
FF
ENDCHAR
STARTCHAR threequarters
ENCODING 243
SWIDTH 720 0
DWIDTH 12 0
BBX 11 11 0 0
VVECTOR 5 16
SWIDTH1 0 -1200
DWIDTH1 0 -20
BITMAP 
6080
9080
2100
7200
1240
94C0
6940
0A40
13E0
2040
2040
ENDCHAR
STARTCHAR paragraph
ENCODING 244
SWIDTH 480 0
DWIDTH 8 0
BBX 8 11 0 0
VVECTOR 4 16
SWIDTH1 0 -1200
DWIDTH1 0 -20
BITMAP 
7F
F2
F2
F2
F2
72
12
12
12
12
12
ENDCHAR
STARTCHAR section
ENCODING 245
SWIDTH 480 0
DWIDTH 8 0
BBX 6 14 1 -3
VVECTOR 4 16
SWIDTH1 0 -1200
DWIDTH1 0 -20
BITMAP 
78
CC
CC
60
70
D8
8C
C4
6C
38
18
CC
CC
78
ENDCHAR
STARTCHAR divide
ENCODING 246
SWIDTH 540 0
DWIDTH 9 0
BBX 8 7 0 1
VVECTOR 4 16
SWIDTH1 0 -1200
DWIDTH1 0 -20
BITMAP 
18
18
00
FF
00
18
18
ENDCHAR
STARTCHAR cedilla
ENCODING 247
SWIDTH 360 0
DWIDTH 6 0
BBX 5 4 1 -4
VVECTOR 4 16
SWIDTH1 0 -1200
DWIDTH1 0 -20
BITMAP 
20
30
88
70
ENDCHAR
STARTCHAR degree
ENCODING 248
SWIDTH 420 0
DWIDTH 7 0
BBX 5 5 1 6
VVECTOR 4 16
SWIDTH1 0 -1200
DWIDTH1 0 -20
BITMAP 
70
88
88
88
70
ENDCHAR
STARTCHAR dieresis
ENCODING 249
SWIDTH 360 0
DWIDTH 6 0
BBX 5 2 1 11
VVECTOR 4 16
SWIDTH1 0 -1200
DWIDTH1 0 -20
BITMAP 
D8
D8
ENDCHAR
STARTCHAR periodcentered
ENCODING 250
SWIDTH 240 0
DWIDTH 4 0
BBX 2 2 1 5
VVECTOR 2 16
SWIDTH1 0 -1200
DWIDTH1 0 -20
BITMAP 
C0
C0
ENDCHAR
STARTCHAR uni00B9
ENCODING 251
SWIDTH 300 0
DWIDTH 5 0
BBX 3 7 1 4
VVECTOR 3 16
SWIDTH1 0 -1200
DWIDTH1 0 -20
BITMAP 
40
C0
40
40
40
40
E0
ENDCHAR
STARTCHAR uni00B3
ENCODING 252
SWIDTH 300 0
DWIDTH 5 0
BBX 4 7 0 4
VVECTOR 2 16
SWIDTH1 0 -1200
DWIDTH1 0 -20
BITMAP 
60
90
20
70
10
90
60
ENDCHAR
STARTCHAR uni00B2
ENCODING 253
SWIDTH 300 0
DWIDTH 5 0
BBX 4 7 0 4
VVECTOR 2 16
SWIDTH1 0 -1200
DWIDTH1 0 -20
BITMAP 
60
90
10
20
40
90
F0
ENDCHAR
STARTCHAR filledbox
ENCODING 254
SWIDTH 720 0
DWIDTH 12 0
BBX 12 12 0 -1
VVECTOR 6 16
SWIDTH1 0 -1200
DWIDTH1 0 -20
BITMAP 
FFF0
FFF0
FFF0
FFF0
FFF0
FFF0
FFF0
FFF0
FFF0
FFF0
FFF0
FFF0
ENDCHAR
STARTCHAR uni00A0
ENCODING 255
SWIDTH 240 0
DWIDTH 4 0
BBX 0 0 4 16
VVECTOR 6 16
SWIDTH1 0 -1200
DWIDTH1 0 -20
BITMAP 
ENDCHAR
STARTCHAR peseta
ENCODING 256
SWIDTH 1140 0
DWIDTH 19 0
BBX 18 11 0 0
VVECTOR 9 16
SWIDTH1 0 -1200
DWIDTH1 0 -20
BITMAP 
FC0000
664000
66C000
67F3C0
66C640
7CC600
60C300
60C180
60D0C0
60D4C0
F06780
ENDCHAR
STARTCHAR revlogicalnot
ENCODING 257
SWIDTH 540 0
DWIDTH 9 0
BBX 7 4 1 3
VVECTOR 5 16
SWIDTH1 0 -1200
DWIDTH1 0 -20
BITMAP 
FE
80
80
80
ENDCHAR
STARTCHAR SF190000
ENCODING 258
SWIDTH 960 0
DWIDTH 16 0
BBX 9 16 0 -4
VVECTOR 1 16
SWIDTH1 0 -1200
DWIDTH1 0 -20
BITMAP 
0080
0080
0080
0080
0080
0080
FF80
0080
0080
FF80
0080
0080
0080
0080
0080
0080
ENDCHAR
STARTCHAR SF200000
ENCODING 259
SWIDTH 960 0
DWIDTH 16 0
BBX 10 16 0 -4
VVECTOR 2 16
SWIDTH1 0 -1200
DWIDTH1 0 -20
BITMAP 
0240
0240
0240
0240
0240
0240
0240
FE40
0240
0240
0240
0240
0240
0240
0240
0240
ENDCHAR
STARTCHAR SF210000
ENCODING 260
SWIDTH 960 0
DWIDTH 16 0
BBX 10 9 0 -4
VVECTOR 2 16
SWIDTH1 0 -1200
DWIDTH1 0 -20
BITMAP 
FFC0
0240
0240
0240
0240
0240
0240
0240
0240
ENDCHAR
STARTCHAR SF220000
ENCODING 261
SWIDTH 960 0
DWIDTH 16 0
BBX 9 10 0 -4
VVECTOR 1 16
SWIDTH1 0 -1200
DWIDTH1 0 -20
BITMAP 
FF80
0080
0080
FF80
0080
0080
0080
0080
0080
0080
ENDCHAR
STARTCHAR SF270000
ENCODING 262
SWIDTH 960 0
DWIDTH 16 0
BBX 10 8 0 4
VVECTOR 2 16
SWIDTH1 0 -1200
DWIDTH1 0 -20
BITMAP 
0240
0240
0240
0240
0240
0240
0240
FFC0
ENDCHAR
STARTCHAR SF280000
ENCODING 263
SWIDTH 960 0
DWIDTH 16 0
BBX 9 10 0 2
VVECTOR 1 16
SWIDTH1 0 -1200
DWIDTH1 0 -20
BITMAP 
0080
0080
0080
0080
0080
0080
FF80
0080
0080
FF80
ENDCHAR
STARTCHAR SF360000
ENCODING 264
SWIDTH 960 0
DWIDTH 16 0
BBX 8 16 8 -4
VVECTOR 16 16
SWIDTH1 0 -1200
DWIDTH1 0 -20
BITMAP 
80
80
80
80
80
80
FF
80
80
FF
80
80
80
80
80
80
ENDCHAR
STARTCHAR SF370000
ENCODING 265
SWIDTH 960 0
DWIDTH 16 0
BBX 10 16 6 -4
VVECTOR 14 16
SWIDTH1 0 -1200
DWIDTH1 0 -20
BITMAP 
9000
9000
9000
9000
9000
9000
9000
9FC0
9000
9000
9000
9000
9000
9000
9000
9000
ENDCHAR
STARTCHAR SF450000
ENCODING 266
SWIDTH 960 0
DWIDTH 16 0
BBX 16 10 0 2
VVECTOR 8 16
SWIDTH1 0 -1200
DWIDTH1 0 -20
BITMAP 
0080
0080
0080
0080
0080
0080
FFFF
0000
0000
FFFF
ENDCHAR
STARTCHAR SF460000
ENCODING 267
SWIDTH 960 0
DWIDTH 16 0
BBX 16 8 0 4
VVECTOR 8 16
SWIDTH1 0 -1200
DWIDTH1 0 -20
BITMAP 
0240
0240
0240
0240
0240
0240
0240
FFFF
ENDCHAR
STARTCHAR SF470000
ENCODING 268
SWIDTH 960 0
DWIDTH 16 0
BBX 16 10 0 -4
VVECTOR 8 16
SWIDTH1 0 -1200
DWIDTH1 0 -20
BITMAP 
FFFF
0000
0000
FFFF
0080
0080
0080
0080
0080
0080
ENDCHAR
STARTCHAR SF480000
ENCODING 269
SWIDTH 960 0
DWIDTH 16 0
BBX 16 9 0 -4
VVECTOR 8 16
SWIDTH1 0 -1200
DWIDTH1 0 -20
BITMAP 
FFFF
0240
0240
0240
0240
0240
0240
0240
0240
ENDCHAR
STARTCHAR SF490000
ENCODING 270
SWIDTH 960 0
DWIDTH 16 0
BBX 10 8 6 4
VVECTOR 14 16
SWIDTH1 0 -1200
DWIDTH1 0 -20
BITMAP 
9000
9000
9000
9000
9000
9000
9000
FFC0
ENDCHAR
STARTCHAR SF500000
ENCODING 271
SWIDTH 960 0
DWIDTH 16 0
BBX 8 10 8 2
VVECTOR 16 16
SWIDTH1 0 -1200
DWIDTH1 0 -20
BITMAP 
80
80
80
80
80
80
FF
80
80
FF
ENDCHAR
STARTCHAR SF510000
ENCODING 272
SWIDTH 960 0
DWIDTH 16 0
BBX 8 10 8 -4
VVECTOR 16 16
SWIDTH1 0 -1200
DWIDTH1 0 -20
BITMAP 
FF
80
80
FF
80
80
80
80
80
80
ENDCHAR
STARTCHAR SF520000
ENCODING 273
SWIDTH 960 0
DWIDTH 16 0
BBX 10 9 6 -4
VVECTOR 14 16
SWIDTH1 0 -1200
DWIDTH1 0 -20
BITMAP 
FFC0
9000
9000
9000
9000
9000
9000
9000
9000
ENDCHAR
STARTCHAR SF530000
ENCODING 274
SWIDTH 960 0
DWIDTH 16 0
BBX 16 16 0 -4
VVECTOR 8 16
SWIDTH1 0 -1200
DWIDTH1 0 -20
BITMAP 
0240
0240
0240
0240
0240
0240
0240
FFFF
0240
0240
0240
0240
0240
0240
0240
0240
ENDCHAR
STARTCHAR SF540000
ENCODING 275
SWIDTH 960 0
DWIDTH 16 0
BBX 16 16 0 -4
VVECTOR 8 16
SWIDTH1 0 -1200
DWIDTH1 0 -20
BITMAP 
0080
0080
0080
0080
0080
0080
FFFF
0080
0080
FFFF
0080
0080
0080
0080
0080
0080
ENDCHAR
STARTCHAR lfblock
ENCODING 276
SWIDTH 1020 0
DWIDTH 17 0
BBX 9 16 0 -4
VVECTOR 1 16
SWIDTH1 0 -1200
DWIDTH1 0 -20
BITMAP 
FF80
FF80
FF80
FF80
FF80
FF80
FF80
FF80
FF80
FF80
FF80
FF80
FF80
FF80
FF80
FF80
ENDCHAR
STARTCHAR rtblock
ENCODING 277
SWIDTH 1020 0
DWIDTH 17 0
BBX 9 16 8 -4
VVECTOR 17 16
SWIDTH1 0 -1200
DWIDTH1 0 -20
BITMAP 
FF80
FF80
FF80
FF80
FF80
FF80
FF80
FF80
FF80
FF80
FF80
FF80
FF80
FF80
FF80
FF80
ENDCHAR
STARTCHAR alpha
ENCODING 278
SWIDTH 600 0
DWIDTH 10 0
BBX 9 8 0 0
VVECTOR 4 16
SWIDTH1 0 -1200
DWIDTH1 0 -20
BITMAP 
1C80
3380
6300
C300
C600
C600
CE80
7300
ENDCHAR
STARTCHAR Gamma
ENCODING 279
SWIDTH 600 0
DWIDTH 10 0
BBX 8 11 1 0
VVECTOR 5 16
SWIDTH1 0 -1200
DWIDTH1 0 -20
BITMAP 
FF
63
61
60
60
60
60
60
60
60
F8
ENDCHAR
STARTCHAR pi
ENCODING 280
SWIDTH 660 0
DWIDTH 11 0
BBX 11 8 0 0
VVECTOR 6 16
SWIDTH1 0 -1200
DWIDTH1 0 -20
BITMAP 
7FE0
9980
9980
1980
1100
3300
3300
3300
ENDCHAR
STARTCHAR Sigma
ENCODING 281
SWIDTH 600 0
DWIDTH 10 0
BBX 9 11 0 0
VVECTOR 4 16
SWIDTH1 0 -1200
DWIDTH1 0 -20
BITMAP 
FF00
6100
3080
1800
0C00
0400
0800
1000
2080
7F00
FF00
ENDCHAR
STARTCHAR sigma
ENCODING 282
SWIDTH 540 0
DWIDTH 9 0
BBX 9 8 0 0
VVECTOR 5 16
SWIDTH1 0 -1200
DWIDTH1 0 -20
BITMAP 
1F80
7200
6300
C300
C300
C600
4E00
3800
ENDCHAR
STARTCHAR tau
ENCODING 283
SWIDTH 480 0
DWIDTH 8 0
BBX 8 8 0 0
VVECTOR 4 16
SWIDTH1 0 -1200
DWIDTH1 0 -20
BITMAP 
7F
98
98
10
30
30
34
18
ENDCHAR
STARTCHAR Phi
ENCODING 284
SWIDTH 720 0
DWIDTH 12 0
BBX 10 11 1 0
VVECTOR 6 16
SWIDTH1 0 -1200
DWIDTH1 0 -20
BITMAP 
1E00
0C00
1E00
6D80
CCC0
CCC0
CCC0
6D80
1E00
0C00
1E00
ENDCHAR
STARTCHAR Theta
ENCODING 285
SWIDTH 720 0
DWIDTH 12 0
BBX 10 11 1 0
VVECTOR 6 16
SWIDTH1 0 -1200
DWIDTH1 0 -20
BITMAP 
1E00
7380
6180
C0C0
D2C0
DEC0
D2C0
C0C0
6180
7380
1E00
ENDCHAR
STARTCHAR uni03A9
ENCODING 286
SWIDTH 720 0
DWIDTH 12 0
BBX 12 11 0 0
VVECTOR 6 16
SWIDTH1 0 -1200
DWIDTH1 0 -20
BITMAP 
0F00
39C0
30C0
6060
6060
6060
6060
30C0
B0D0
9990
79E0
ENDCHAR
STARTCHAR delta
ENCODING 287
SWIDTH 480 0
DWIDTH 8 0
BBX 7 12 0 0
VVECTOR 3 16
SWIDTH1 0 -1200
DWIDTH1 0 -20
BITMAP 
3C
66
62
30
18
2C
66
C6
C6
C6
CC
78
ENDCHAR
STARTCHAR infinity
ENCODING 288
SWIDTH 840 0
DWIDTH 14 0
BBX 11 6 1 2
VVECTOR 6 16
SWIDTH1 0 -1200
DWIDTH1 0 -20
BITMAP 
71C0
DA60
8C20
8620
CB60
71C0
ENDCHAR
STARTCHAR phi1
ENCODING 289
SWIDTH 660 0
DWIDTH 11 0
BBX 9 15 1 -3
VVECTOR 6 16
SWIDTH1 0 -1200
DWIDTH1 0 -20
BITMAP 
0300
0300
0200
0600
1E00
7500
6580
C980
C980
D300
5700
3C00
1000
2000
2000
ENDCHAR
STARTCHAR epsilon
ENCODING 290
SWIDTH 420 0
DWIDTH 7 0
BBX 6 8 0 0
VVECTOR 3 16
SWIDTH1 0 -1200
DWIDTH1 0 -20
BITMAP 
3C
60
C0
F8
C0
C0
C0
78
ENDCHAR
STARTCHAR intersection
ENCODING 291
SWIDTH 840 0
DWIDTH 14 0
BBX 10 11 2 0
VVECTOR 7 16
SWIDTH1 0 -1200
DWIDTH1 0 -20
BITMAP 
1E00
6180
4080
8040
8040
8040
8040
8040
8040
8040
8040
ENDCHAR
STARTCHAR equivalence
ENCODING 292
SWIDTH 540 0
DWIDTH 9 0
BBX 7 7 1 1
VVECTOR 5 16
SWIDTH1 0 -1200
DWIDTH1 0 -20
BITMAP 
FE
00
00
FE
00
00
FE
ENDCHAR
STARTCHAR greaterequal
ENCODING 293
SWIDTH 540 0
DWIDTH 9 0
BBX 7 9 1 0
VVECTOR 5 16
SWIDTH1 0 -1200
DWIDTH1 0 -20
BITMAP 
80
60
18
06
18
60
80
00
FE
ENDCHAR
STARTCHAR lessequal
ENCODING 294
SWIDTH 540 0
DWIDTH 9 0
BBX 7 9 1 0
VVECTOR 5 16
SWIDTH1 0 -1200
DWIDTH1 0 -20
BITMAP 
02
0C
30
C0
30
0C
02
00
FE
ENDCHAR
STARTCHAR integraltp
ENCODING 295
SWIDTH 600 0
DWIDTH 10 0
BBX 6 16 4 -4
VVECTOR 9 16
SWIDTH1 0 -1200
DWIDTH1 0 -20
BITMAP 
1C
2C
2C
60
40
40
40
C0
C0
C0
C0
C0
C0
C0
C0
C0
ENDCHAR
STARTCHAR integralbt
ENCODING 296
SWIDTH 600 0
DWIDTH 10 0
BBX 6 16 0 -4
VVECTOR 1 16
SWIDTH1 0 -1200
DWIDTH1 0 -20
BITMAP 
0C
0C
0C
0C
0C
0C
0C
0C
0C
08
08
08
18
D0
D0
E0
ENDCHAR
STARTCHAR approxequal
ENCODING 297
SWIDTH 540 0
DWIDTH 9 0
BBX 7 5 1 2
VVECTOR 5 16
SWIDTH1 0 -1200
DWIDTH1 0 -20
BITMAP 
72
8C
00
72
8C
ENDCHAR
STARTCHAR uni2219
ENCODING 298
SWIDTH 420 0
DWIDTH 7 0
BBX 5 5 1 6
VVECTOR 4 16
SWIDTH1 0 -1200
DWIDTH1 0 -20
BITMAP 
70
F8
F8
F8
70
ENDCHAR
STARTCHAR radical
ENCODING 299
SWIDTH 660 0
DWIDTH 11 0
BBX 10 14 1 -1
VVECTOR 7 16
SWIDTH1 0 -1200
DWIDTH1 0 -20
BITMAP 
00C0
0080
0080
0100
0100
0100
6200
A200
3200
3400
1400
1C00
1800
0800
ENDCHAR
STARTCHAR uni207F
ENCODING 300
SWIDTH 360 0
DWIDTH 6 0
BBX 5 5 0 3
VVECTOR 2 16
SWIDTH1 0 -1200
DWIDTH1 0 -20
BITMAP 
D0
68
48
48
48
ENDCHAR
STARTCHAR uni02C9
ENCODING 301
SWIDTH 360 0
DWIDTH 6 0
BBX 5 1 1 11
VVECTOR 4 16
SWIDTH1 0 -1200
DWIDTH1 0 -20
BITMAP 
F8
ENDCHAR
STARTCHAR breve
ENCODING 302
SWIDTH 360 0
DWIDTH 6 0
BBX 5 2 1 11
VVECTOR 4 16
SWIDTH1 0 -1200
DWIDTH1 0 -20
BITMAP 
88
70
ENDCHAR
STARTCHAR dotaccent
ENCODING 303
SWIDTH 360 0
DWIDTH 6 0
BBX 2 2 2 11
VVECTOR 3 16
SWIDTH1 0 -1200
DWIDTH1 0 -20
BITMAP 
C0
C0
ENDCHAR
STARTCHAR ring
ENCODING 304
SWIDTH 360 0
DWIDTH 6 0
BBX 4 4 1 9
VVECTOR 3 16
SWIDTH1 0 -1200
DWIDTH1 0 -20
BITMAP 
60
90
90
60
ENDCHAR
STARTCHAR hungarumlaut
ENCODING 305
SWIDTH 360 0
DWIDTH 6 0
BBX 6 3 0 10
VVECTOR 3 16
SWIDTH1 0 -1200
DWIDTH1 0 -20
BITMAP 
6C
48
90
ENDCHAR
STARTCHAR ogonek
ENCODING 306
SWIDTH 360 0
DWIDTH 6 0
BBX 4 4 1 -4
VVECTOR 3 16
SWIDTH1 0 -1200
DWIDTH1 0 -20
BITMAP 
20
40
90
60
ENDCHAR
STARTCHAR caron
ENCODING 307
SWIDTH 360 0
DWIDTH 6 0
BBX 6 3 0 10
VVECTOR 3 16
SWIDTH1 0 -1200
DWIDTH1 0 -20
BITMAP 
CC
78
30
ENDCHAR
STARTCHAR quoteleft
ENCODING 308
SWIDTH 360 0
DWIDTH 6 0
BBX 3 5 2 8
VVECTOR 4 16
SWIDTH1 0 -1200
DWIDTH1 0 -20
BITMAP 
20
40
80
C0
C0
ENDCHAR
STARTCHAR quoteright
ENCODING 309
SWIDTH 360 0
DWIDTH 6 0
BBX 3 5 1 8
VVECTOR 2 16
SWIDTH1 0 -1200
DWIDTH1 0 -20
BITMAP 
60
60
20
40
80
ENDCHAR
STARTCHAR quotedblleft
ENCODING 310
SWIDTH 420 0
DWIDTH 7 0
BBX 6 5 0 8
VVECTOR 3 16
SWIDTH1 0 -1200
DWIDTH1 0 -20
BITMAP 
24
48
90
D8
D8
ENDCHAR
STARTCHAR quotedblright
ENCODING 311
SWIDTH 420 0
DWIDTH 7 0
BBX 6 5 0 8
VVECTOR 3 16
SWIDTH1 0 -1200
DWIDTH1 0 -20
BITMAP 
6C
6C
24
48
90
ENDCHAR
STARTCHAR endash
ENCODING 312
SWIDTH 480 0
DWIDTH 8 0
BBX 8 1 0 3
VVECTOR 4 16
SWIDTH1 0 -1200
DWIDTH1 0 -20
BITMAP 
FF
ENDCHAR
STARTCHAR emdash
ENCODING 313
SWIDTH 1020 0
DWIDTH 17 0
BBX 17 1 0 3
VVECTOR 9 16
SWIDTH1 0 -1200
DWIDTH1 0 -20
BITMAP 
FFFF80
ENDCHAR
STARTCHAR uniFFE5
ENCODING 314
SWIDTH 360 0
DWIDTH 6 0
BBX 6 3 0 10
VVECTOR 3 16
SWIDTH1 0 -1200
DWIDTH1 0 -20
BITMAP 
30
78
CC
ENDCHAR
STARTCHAR dotlessi
ENCODING 315
SWIDTH 360 0
DWIDTH 6 0
BBX 6 2 0 11
VVECTOR 3 16
SWIDTH1 0 -1200
DWIDTH1 0 -20
BITMAP 
74
98
ENDCHAR
STARTCHAR quotesinglbase
ENCODING 316
SWIDTH 360 0
DWIDTH 6 0
BBX 3 5 1 -3
VVECTOR 2 16
SWIDTH1 0 -1200
DWIDTH1 0 -20
BITMAP 
60
60
20
40
80
ENDCHAR
STARTCHAR quotedblbase
ENCODING 317
SWIDTH 420 0
DWIDTH 7 0
BBX 6 5 0 -3
VVECTOR 3 16
SWIDTH1 0 -1200
DWIDTH1 0 -20
BITMAP 
6C
6C
24
48
90
ENDCHAR
STARTCHAR ellipsis
ENCODING 318
SWIDTH 1020 0
DWIDTH 17 0
BBX 14 2 1 0
VVECTOR 8 16
SWIDTH1 0 -1200
DWIDTH1 0 -20
BITMAP 
C30C
C30C
ENDCHAR
STARTCHAR dagger
ENCODING 319
SWIDTH 480 0
DWIDTH 8 0
BBX 7 14 0 -3
VVECTOR 3 16
SWIDTH1 0 -1200
DWIDTH1 0 -20
BITMAP 
38
10
10
92
FE
92
10
38
38
10
10
10
10
10
ENDCHAR
STARTCHAR daggerdbl
ENCODING 320
SWIDTH 480 0
DWIDTH 8 0
BBX 7 14 0 -3
VVECTOR 3 16
SWIDTH1 0 -1200
DWIDTH1 0 -20
BITMAP 
38
10
92
FE
92
10
38
38
10
92
FE
92
10
38
ENDCHAR
STARTCHAR circumflex
ENCODING 321
SWIDTH 360 0
DWIDTH 6 0
BBX 6 3 0 10
VVECTOR 3 16
SWIDTH1 0 -1200
DWIDTH1 0 -20
BITMAP 
30
78
CC
ENDCHAR
STARTCHAR perthousand
ENCODING 322
SWIDTH 1080 0
DWIDTH 18 0
BBX 17 11 0 0
VVECTOR 8 16
SWIDTH1 0 -1200
DWIDTH1 0 -20
BITMAP 
30C000
6F8000
C90000
9A0000
B60000
64C300
09A680
1B2C80
126980
22CB00
618600
ENDCHAR
STARTCHAR Scaron
ENCODING 323
SWIDTH 600 0
DWIDTH 10 0
BBX 8 16 1 0
VVECTOR 5 16
SWIDTH1 0 -1200
DWIDTH1 0 -20
BITMAP 
66
3C
18
00
00
3A
66
C2
C0
70
3C
0E
03
83
C6
BC
ENDCHAR
STARTCHAR guilsinglleft
ENCODING 324
SWIDTH 300 0
DWIDTH 5 0
BBX 3 6 1 1
VVECTOR 3 16
SWIDTH1 0 -1200
DWIDTH1 0 -20
BITMAP 
20
40
C0
C0
40
20
ENDCHAR
STARTCHAR OE
ENCODING 325
SWIDTH 960 0
DWIDTH 16 0
BBX 14 11 1 0
VVECTOR 8 16
SWIDTH1 0 -1200
DWIDTH1 0 -20
BITMAP 
1FF8
7308
6308
C300
C310
C3F0
C310
C300
6304
730C
1FF8
ENDCHAR
STARTCHAR tilde
ENCODING 326
SWIDTH 360 0
DWIDTH 6 0
BBX 6 2 0 11
VVECTOR 3 16
SWIDTH1 0 -1200
DWIDTH1 0 -20
BITMAP 
74
98
ENDCHAR
STARTCHAR trademark
ENCODING 327
SWIDTH 960 0
DWIDTH 16 0
BBX 13 7 1 4
VVECTOR 7 16
SWIDTH1 0 -1200
DWIDTH1 0 -20
BITMAP 
FB18
A910
21B0
21B0
2150
2150
7358
ENDCHAR
STARTCHAR scaron
ENCODING 328
SWIDTH 360 0
DWIDTH 6 0
BBX 6 13 0 0
VVECTOR 3 16
SWIDTH1 0 -1200
DWIDTH1 0 -20
BITMAP 
CC
78
30
00
00
78
C8
C0
60
30
18
98
F0
ENDCHAR
STARTCHAR guilsinglright
ENCODING 329
SWIDTH 300 0
DWIDTH 5 0
BBX 3 6 1 1
VVECTOR 3 16
SWIDTH1 0 -1200
DWIDTH1 0 -20
BITMAP 
80
40
60
60
40
80
ENDCHAR
STARTCHAR oe
ENCODING 330
SWIDTH 720 0
DWIDTH 12 0
BBX 11 8 0 0
VVECTOR 5 16
SWIDTH1 0 -1200
DWIDTH1 0 -20
BITMAP 
7DC0
C660
C660
C7E0
C600
C600
C660
7BC0
ENDCHAR
STARTCHAR Ydieresis
ENCODING 331
SWIDTH 720 0
DWIDTH 12 0
BBX 10 15 1 0
VVECTOR 6 16
SWIDTH1 0 -1200
DWIDTH1 0 -20
BITMAP 
1B00
1B00
0000
0000
F1C0
6080
3100
3100
1A00
1E00
0C00
0C00
0C00
0C00
3F00
ENDCHAR
STARTCHAR gbreve
ENCODING 332
SWIDTH 420 0
DWIDTH 7 0
BBX 7 15 0 -4
VVECTOR 4 16
SWIDTH1 0 -1200
DWIDTH1 0 -20
BITMAP 
44
38
00
78
CE
CC
CC
CC
78
40
FC
7E
86
C4
78
ENDCHAR
STARTCHAR Gbreve
ENCODING 333
SWIDTH 720 0
DWIDTH 12 0
BBX 10 14 1 0
VVECTOR 6 16
SWIDTH1 0 -1200
DWIDTH1 0 -20
BITMAP 
1100
0E00
0000
1E80
7380
6080
C000
C000
C3C0
C180
C180
6180
7380
1E00
ENDCHAR
STARTCHAR Idotaccent
ENCODING 334
SWIDTH 360 0
DWIDTH 6 0
BBX 4 15 1 0
VVECTOR 3 16
SWIDTH1 0 -1200
DWIDTH1 0 -20
BITMAP 
60
60
00
00
F0
60
60
60
60
60
60
60
60
60
F0
ENDCHAR
STARTCHAR scedilla
ENCODING 335
SWIDTH 360 0
DWIDTH 6 0
BBX 5 12 0 -4
VVECTOR 2 16
SWIDTH1 0 -1200
DWIDTH1 0 -20
BITMAP 
78
C8
C0
60
30
18
98
F0
20
30
88
70
ENDCHAR
STARTCHAR Scedilla
ENCODING 336
SWIDTH 600 0
DWIDTH 10 0
BBX 8 15 1 -4
VVECTOR 5 16
SWIDTH1 0 -1200
DWIDTH1 0 -20
BITMAP 
3A
66
C2
C0
70
3C
0E
03
83
C6
BC
10
18
44
38
ENDCHAR
STARTCHAR abreve
ENCODING 337
SWIDTH 420 0
DWIDTH 7 0
BBX 6 11 0 0
VVECTOR 3 16
SWIDTH1 0 -1200
DWIDTH1 0 -20
BITMAP 
44
38
00
78
CC
0C
7C
CC
CC
CC
7C
ENDCHAR
STARTCHAR Abreve
ENCODING 338
SWIDTH 720 0
DWIDTH 12 0
BBX 12 14 0 0
VVECTOR 6 16
SWIDTH1 0 -1200
DWIDTH1 0 -20
BITMAP 
1100
0E00
0000
0600
0600
0B00
0B00
1980
1180
1F80
30C0
20C0
6060
F0F0
ENDCHAR
STARTCHAR aogonek
ENCODING 339
SWIDTH 420 0
DWIDTH 7 0
BBX 7 12 0 -4
VVECTOR 4 16
SWIDTH1 0 -1200
DWIDTH1 0 -20
BITMAP 
78
CC
0C
7C
CC
CC
CC
7C
08
18
22
1C
ENDCHAR
STARTCHAR Aogonek
ENCODING 340
SWIDTH 720 0
DWIDTH 12 0
BBX 12 15 0 -4
VVECTOR 6 16
SWIDTH1 0 -1200
DWIDTH1 0 -20
BITMAP 
0600
0600
0B00
0B00
1980
1180
1F80
30C0
20C0
6060
F0F0
0040
00C0
0110
00E0
ENDCHAR
STARTCHAR cacute
ENCODING 341
SWIDTH 420 0
DWIDTH 7 0
BBX 6 12 0 0
VVECTOR 3 16
SWIDTH1 0 -1200
DWIDTH1 0 -20
BITMAP 
0C
18
20
00
78
CC
CC
C0
C0
C0
CC
78
ENDCHAR
STARTCHAR Cacute
ENCODING 342
SWIDTH 660 0
DWIDTH 11 0
BBX 9 15 1 0
VVECTOR 6 16
SWIDTH1 0 -1200
DWIDTH1 0 -20
BITMAP 
0600
0C00
1000
0000
1E80
7380
6180
C080
C000
C000
C000
C000
6080
7380
1E00
ENDCHAR
STARTCHAR ccaron
ENCODING 343
SWIDTH 420 0
DWIDTH 7 0
BBX 6 12 0 0
VVECTOR 3 16
SWIDTH1 0 -1200
DWIDTH1 0 -20
BITMAP 
CC
78
30
00
78
CC
CC
C0
C0
C0
CC
78
ENDCHAR
STARTCHAR Ccaron
ENCODING 344
SWIDTH 660 0
DWIDTH 11 0
BBX 9 15 1 0
VVECTOR 6 16
SWIDTH1 0 -1200
DWIDTH1 0 -20
BITMAP 
3300
1E00
0C00
0000
1E80
7380
6180
C080
C000
C000
C000
C000
6080
7380
1E00
ENDCHAR
STARTCHAR dcaron
ENCODING 345
SWIDTH 540 0
DWIDTH 9 0
BBX 8 14 0 0
VVECTOR 4 16
SWIDTH1 0 -1200
DWIDTH1 0 -20
BITMAP 
CC
78
32
0E
06
06
76
CE
C6
C6
C6
C6
CE
77
ENDCHAR
STARTCHAR Dcaron
ENCODING 346
SWIDTH 720 0
DWIDTH 12 0
BBX 10 15 1 0
VVECTOR 6 16
SWIDTH1 0 -1200
DWIDTH1 0 -20
BITMAP 
6600
3C00
1800
0000
FE00
6380
6180
60C0
60C0
60C0
60C0
60C0
6180
6380
FE00
ENDCHAR
STARTCHAR dcroat
ENCODING 347
SWIDTH 540 0
DWIDTH 9 0
BBX 8 12 0 0
VVECTOR 4 16
SWIDTH1 0 -1200
DWIDTH1 0 -20
BITMAP 
02
0E
1F
06
76
CE
C6
C6
C6
C6
CE
77
ENDCHAR
STARTCHAR ecaron
ENCODING 348
SWIDTH 420 0
DWIDTH 7 0
BBX 6 12 0 0
VVECTOR 3 16
SWIDTH1 0 -1200
DWIDTH1 0 -20
BITMAP 
CC
78
30
00
78
CC
CC
FC
C0
C0
CC
78
ENDCHAR
STARTCHAR Ecaron
ENCODING 349
SWIDTH 660 0
DWIDTH 11 0
BBX 9 15 1 0
VVECTOR 6 16
SWIDTH1 0 -1200
DWIDTH1 0 -20
BITMAP 
6600
3C00
1800
0000
FF00
6100
6100
6000
6200
7E00
6200
6000
6080
6180
FF00
ENDCHAR
STARTCHAR eogonek
ENCODING 350
SWIDTH 420 0
DWIDTH 7 0
BBX 6 12 0 -4
VVECTOR 3 16
SWIDTH1 0 -1200
DWIDTH1 0 -20
BITMAP 
78
CC
CC
FC
C0
C0
CC
78
10
30
44
38
ENDCHAR
STARTCHAR Eogonek
ENCODING 351
SWIDTH 660 0
DWIDTH 11 0
BBX 9 15 1 -4
VVECTOR 6 16
SWIDTH1 0 -1200
DWIDTH1 0 -20
BITMAP 
FF00
6100
6100
6000
6200
7E00
6200
6000
6080
6180
FF00
0800
1800
2200
1C00
ENDCHAR
STARTCHAR lacute
ENCODING 352
SWIDTH 300 0
DWIDTH 5 0
BBX 4 15 0 0
VVECTOR 2 16
SWIDTH1 0 -1200
DWIDTH1 0 -20
BITMAP 
30
60
80
20
E0
60
60
60
60
60
60
60
60
60
70
ENDCHAR
STARTCHAR Lacute
ENCODING 353
SWIDTH 600 0
DWIDTH 10 0
BBX 9 15 1 0
VVECTOR 6 16
SWIDTH1 0 -1200
DWIDTH1 0 -20
BITMAP 
1800
3000
4000
0000
F000
6000
6000
6000
6000
6000
6000
6000
6080
6180
FF00
ENDCHAR
STARTCHAR lcaron
ENCODING 354
SWIDTH 300 0
DWIDTH 5 0
BBX 4 16 0 0
VVECTOR 2 16
SWIDTH1 0 -1200
DWIDTH1 0 -20
BITMAP 
90
F0
60
00
20
E0
60
60
60
60
60
60
60
60
60
70
ENDCHAR
STARTCHAR Lcaron
ENCODING 355
SWIDTH 600 0
DWIDTH 10 0
BBX 9 15 1 0
VVECTOR 6 16
SWIDTH1 0 -1200
DWIDTH1 0 -20
BITMAP 
CC00
7800
3000
0000
F000
6000
6000
6000
6000
6000
6000
6000
6080
6180
FF00
ENDCHAR
STARTCHAR lslash
ENCODING 356
SWIDTH 300 0
DWIDTH 5 0
BBX 4 12 0 0
VVECTOR 2 16
SWIDTH1 0 -1200
DWIDTH1 0 -20
BITMAP 
20
E0
60
60
60
60
70
E0
60
60
60
70
ENDCHAR
STARTCHAR Lslash
ENCODING 357
SWIDTH 600 0
DWIDTH 10 0
BBX 9 11 1 0
VVECTOR 6 16
SWIDTH1 0 -1200
DWIDTH1 0 -20
BITMAP 
F000
6000
6000
6000
6000
7000
E000
6000
6080
6180
FF00
ENDCHAR
STARTCHAR nacute
ENCODING 358
SWIDTH 540 0
DWIDTH 9 0
BBX 8 12 0 0
VVECTOR 4 16
SWIDTH1 0 -1200
DWIDTH1 0 -20
BITMAP 
0C
18
20
00
EC
76
66
66
66
66
66
77
ENDCHAR
STARTCHAR Nacute
ENCODING 359
SWIDTH 720 0
DWIDTH 12 0
BBX 10 15 1 0
VVECTOR 6 16
SWIDTH1 0 -1200
DWIDTH1 0 -20
BITMAP 
0300
0600
0800
0000
E1C0
7080
7080
5880
4C80
4C80
4680
4380
4380
4180
E080
ENDCHAR
STARTCHAR ncaron
ENCODING 360
SWIDTH 540 0
DWIDTH 9 0
BBX 8 12 0 0
VVECTOR 4 16
SWIDTH1 0 -1200
DWIDTH1 0 -20
BITMAP 
66
3C
18
00
EC
76
66
66
66
66
66
77
ENDCHAR
STARTCHAR Ncaron
ENCODING 361
SWIDTH 720 0
DWIDTH 12 0
BBX 10 15 1 0
VVECTOR 6 16
SWIDTH1 0 -1200
DWIDTH1 0 -20
BITMAP 
3300
1E00
0C00
0000
E1C0
7080
7080
5880
4C80
4C80
4680
4380
4380
4180
E080
ENDCHAR
STARTCHAR ohungarumlaut
ENCODING 362
SWIDTH 480 0
DWIDTH 8 0
BBX 8 12 0 0
VVECTOR 4 16
SWIDTH1 0 -1200
DWIDTH1 0 -20
BITMAP 
33
66
88
00
7C
C6
C6
C6
C6
C6
C6
7C
ENDCHAR
STARTCHAR Ohungarumlaut
ENCODING 363
SWIDTH 720 0
DWIDTH 12 0
BBX 10 15 1 0
VVECTOR 6 16
SWIDTH1 0 -1200
DWIDTH1 0 -20
BITMAP 
0CC0
1980
2200
0000
1E00
7380
6180
C0C0
C0C0
C0C0
C0C0
C0C0
6180
7380
1E00
ENDCHAR
STARTCHAR racute
ENCODING 364
SWIDTH 360 0
DWIDTH 6 0
BBX 5 12 0 0
VVECTOR 2 16
SWIDTH1 0 -1200
DWIDTH1 0 -20
BITMAP 
18
30
40
00
F8
68
60
60
60
60
60
70
ENDCHAR
STARTCHAR Racute
ENCODING 365
SWIDTH 660 0
DWIDTH 11 0
BBX 9 15 1 0
VVECTOR 6 16
SWIDTH1 0 -1200
DWIDTH1 0 -20
BITMAP 
0C00
1800
2000
0000
FC00
6600
6300
6300
6300
6600
7C00
6600
6600
6300
F380
ENDCHAR
STARTCHAR rcaron
ENCODING 366
SWIDTH 360 0
DWIDTH 6 0
BBX 5 12 0 0
VVECTOR 2 16
SWIDTH1 0 -1200
DWIDTH1 0 -20
BITMAP 
48
78
30
00
F8
68
60
60
60
60
60
70
ENDCHAR
STARTCHAR Rcaron
ENCODING 367
SWIDTH 660 0
DWIDTH 11 0
BBX 9 15 1 0
VVECTOR 6 16
SWIDTH1 0 -1200
DWIDTH1 0 -20
BITMAP 
6600
3C00
1800
0000
FC00
6600
6300
6300
6300
6600
7C00
6600
6600
6300
F380
ENDCHAR
STARTCHAR sacute
ENCODING 368
SWIDTH 360 0
DWIDTH 6 0
BBX 5 12 0 0
VVECTOR 2 16
SWIDTH1 0 -1200
DWIDTH1 0 -20
BITMAP 
18
30
40
00
78
C8
C0
60
30
18
98
F0
ENDCHAR
STARTCHAR Sacute
ENCODING 369
SWIDTH 600 0
DWIDTH 10 0
BBX 8 15 1 0
VVECTOR 5 16
SWIDTH1 0 -1200
DWIDTH1 0 -20
BITMAP 
0C
18
20
00
3A
66
C2
C0
70
3C
0E
03
83
C6
BC
ENDCHAR
STARTCHAR tcaron
ENCODING 370
SWIDTH 300 0
DWIDTH 5 0
BBX 4 14 0 0
VVECTOR 2 16
SWIDTH1 0 -1200
DWIDTH1 0 -20
BITMAP 
90
F0
60
00
20
60
F0
60
60
60
60
60
60
30
ENDCHAR
STARTCHAR Tcaron
ENCODING 371
SWIDTH 600 0
DWIDTH 10 0
BBX 10 15 0 0
VVECTOR 5 16
SWIDTH1 0 -1200
DWIDTH1 0 -20
BITMAP 
3300
1E00
0C00
0000
FFC0
8C40
8C40
0C00
0C00
0C00
0C00
0C00
0C00
0C00
3F00
ENDCHAR
STARTCHAR uni0163
ENCODING 372
SWIDTH 300 0
DWIDTH 5 0
BBX 5 14 0 -4
VVECTOR 3 16
SWIDTH1 0 -1200
DWIDTH1 0 -20
BITMAP 
20
60
F0
60
60
60
60
60
60
30
20
30
88
70
ENDCHAR
STARTCHAR uni0162
ENCODING 373
SWIDTH 600 0
DWIDTH 10 0
BBX 10 15 0 -4
VVECTOR 5 16
SWIDTH1 0 -1200
DWIDTH1 0 -20
BITMAP 
FFC0
8C40
8C40
0C00
0C00
0C00
0C00
0C00
0C00
0C00
3F00
0400
0600
1100
0E00
ENDCHAR
STARTCHAR uhungarumlaut
ENCODING 374
SWIDTH 540 0
DWIDTH 9 0
BBX 8 12 0 0
VVECTOR 4 16
SWIDTH1 0 -1200
DWIDTH1 0 -20
BITMAP 
1B
36
48
00
EE
66
66
66
66
66
6E
37
ENDCHAR
STARTCHAR Uhungarumlaut
ENCODING 375
SWIDTH 720 0
DWIDTH 12 0
BBX 10 15 1 0
VVECTOR 6 16
SWIDTH1 0 -1200
DWIDTH1 0 -20
BITMAP 
0CC0
1980
2200
0000
F1C0
6080
6080
6080
6080
6080
6080
6080
6080
3100
1E00
ENDCHAR
STARTCHAR uring
ENCODING 376
SWIDTH 540 0
DWIDTH 9 0
BBX 8 13 0 0
VVECTOR 4 16
SWIDTH1 0 -1200
DWIDTH1 0 -20
BITMAP 
18
24
24
18
00
EE
66
66
66
66
66
6E
37
ENDCHAR
STARTCHAR Uring
ENCODING 377
SWIDTH 720 0
DWIDTH 12 0
BBX 10 16 1 0
VVECTOR 6 16
SWIDTH1 0 -1200
DWIDTH1 0 -20
BITMAP 
0C00
1200
1200
0C00
0000
F1C0
6080
6080
6080
6080
6080
6080
6080
6080
3100
1E00
ENDCHAR
STARTCHAR zacute
ENCODING 378
SWIDTH 420 0
DWIDTH 7 0
BBX 6 12 0 0
VVECTOR 3 16
SWIDTH1 0 -1200
DWIDTH1 0 -20
BITMAP 
18
30
40
00
FC
8C
18
30
30
60
C4
FC
ENDCHAR
STARTCHAR Zacute
ENCODING 379
SWIDTH 660 0
DWIDTH 11 0
BBX 9 15 1 0
VVECTOR 6 16
SWIDTH1 0 -1200
DWIDTH1 0 -20
BITMAP 
0600
0C00
1000
0000
7F80
4300
4600
0600
0C00
0800
1800
3000
3080
6180
FF00
ENDCHAR
STARTCHAR zcaron
ENCODING 380
SWIDTH 420 0
DWIDTH 7 0
BBX 6 12 0 0
VVECTOR 3 16
SWIDTH1 0 -1200
DWIDTH1 0 -20
BITMAP 
CC
78
30
00
FC
8C
18
30
30
60
C4
FC
ENDCHAR
STARTCHAR Zcaron
ENCODING 381
SWIDTH 660 0
DWIDTH 11 0
BBX 9 15 1 0
VVECTOR 6 16
SWIDTH1 0 -1200
DWIDTH1 0 -20
BITMAP 
3300
1E00
0C00
0000
7F80
4300
4600
0600
0C00
0800
1800
3000
3080
6180
FF00
ENDCHAR
STARTCHAR zdotaccent
ENCODING 382
SWIDTH 420 0
DWIDTH 7 0
BBX 6 11 0 0
VVECTOR 3 16
SWIDTH1 0 -1200
DWIDTH1 0 -20
BITMAP 
30
30
00
FC
8C
18
30
30
60
C4
FC
ENDCHAR
ENDFONT
